<svg xmlns="http://www.w3.org/2000/svg" viewBox="-18141.5 -18884.367 271.84 174.732">
  <defs>
    <style>
      .cls-1, .cls-8 {
        fill: #e2c92d;
      }

      .cls-1, .cls-2, .cls-3, .cls-4, .cls-5, .cls-6, .cls-7, .cls-8 {
        stroke: #08586f;
        stroke-linecap: round;
        stroke-linejoin: round;
      }

      .cls-1, .cls-2, .cls-4, .cls-5 {
        fill-rule: evenodd;
      }

      .cls-2, .cls-7 {
        fill: #557fab;
      }

      .cls-3, .cls-5 {
        fill: #7fc561;
      }

      .cls-4, .cls-6 {
        fill: #3e938a;
      }
    </style>
  </defs>
  <g id="Group_365" data-name="Group 365" transform="translate(-18141.25 -18884.116)">
    <path id="Zug_1_" class="cls-1" d="M198.156,68.231l.624,0,1.12-.4,1.7-.336,2.358.393,1.107,1.219,1.017.883.689.842.149.329.242.37.447.345,1.771.778,1.34-.176,1.107.769-1.07,1.145-.456,1.3-1.678,2.038-.661.5-.81.333-.81.159-1.371.5-.717.153-.521-.011-.493-.483-.251-.178-.326-.073-3.093.269-1.045-2.37-.623-.055-.428-.162-.6.3-.624.465-.344-.953-.084-.082-.254-.057-.27-.13-.512-.128-.745-1.211-.447-3.1-.307-3.723.046-.548.037-.24.782-1.51.279.939.074.375.158.356.4.258,2.385.788Z" transform="translate(-46.674 -15.751)"/>
    <path id="Zrich_1_" class="cls-1" d="M213.862,17.069l.363-.14.279-.2.251-.262.177-.127.149-.041.254.012.27-.078.242-.175.27-.322.14-.138.986-.428.233,1.184.679.792.093.368-.1.442-.251.382-.456.888-.521.585-.372.695h-.2l-.251-.046-.27-.209-.326-.345-.869-.444-.428-.067-.428.152-.363.3-.13.193.019.193.2.32.54.665.726.239,3.822,1.886.335.368.326.469-.112.156-.279.6.233.8.354.414.6.349,1.777.726.422.34.158.294-.028.266L222.042,30l-.028.214.028.165.037.115v.285l-.112.23-.124.147-.27.188-.1.106-.046.161-.019.287.139.516.13.255.589.379.289,1.817.6.587.484.271v.124l-.354.417-.084.624-.112.4-.13.291-.456.619,2.392,2.539.261.385,1.427,2.581.344,1.893.177.7-.186.343-.372.444-.772.672-.447.6-.338.549.047.729-.279.418-.558.508-3.539,1.648-.782.069-2.469-.345-1.107.873-.828,2.047-2.6.532-2.339,1.5-.6.536-.354.422-.093.276-.046.233.009.235.065.18.344.481.093.479-1.34.176-1.771-.778-.447-.345-.242-.37L206,58.067l-.689-.842-1.017-.883-1.107-1.219-2.358-.393-1.7.336-1.12.4-.624,0-.707-.119-2.385-.788-.4-.258-.158-.356-.074-.375-.279-.939-1.349-2.875-.149-.716.167-.037.186,0,.158-.018.4-.165,1.033-.64,1.12-1.45.549-.966.177-.851-1.781.563-.707-.769-.13-.339L193,44.075l.019-.288.121-.957.009-.556-.27-.318-1.173-.6-.348-.284-.177-.2.121-.481,1.594-1.636.251-.733-.149-.33-.819-1.087-.447-1.371L190.407,32.4l-.316-1.232.028-.909.3-1.685,1.005-1.617,1.3-1.319L194.1,23.4l.1-.541,1.667-.282.074-.423.7-1.523,1.836-1.219,1.8-.184.924.87.714,1.205.125.154L200.756,22.7l-.056.662.251.159.409.4.186.223.152.251.177.218.214.078.2-.021.465-.692.772-2.046-.015-.312.26-.458.068-.667-.031-.633.074-.607-.025-.306-.143-.347-.1-.405.136-.493.217-.189.316-.12.261-.009.056.143.037.548.391.2.341-2.111-.546-.053L204.554,16l.011-.014.831-1.108,1.027-.97.416-.8.5-.512,2.59.069-.192,1.364.1,1.419.251.5.372.58.419.267.53.18Z" transform="translate(-45.901 -2.985)"/>
    <path id="Valais_1_" class="cls-2" d="M166.879,144.626l-1.759,2.38-1,.663-1.377.167-.531.165-.2.2-.028.207.074.171.019.171-.037.189-.307.586-.251.622-.149.563.056.653.019.347,0,.034-2.549.551-1.632.891-1.278,1.359-.5,1.1.23.369.4.3.025.882-.36.8-.6.717-.689.528-1.7.863-2.953,3.909-1.241.867-2.606.584-1.3.6-1.173,1.194-.6.848-.254.731.211.336,1.4,1.224,1.774,3.434.168,3.181-1.3,2.807-2.624,2.282-.651.219-1.241.134-.6.465-.428.89-.13.993-.006.97-.316,2.463-.112.174-.583,1.287-.043.188-.751.978-.428.357-.577.179-4.256.964-1.594,1.12-1.322,2.527-.074.141-.186.888.05.45-.143.29-.751.41-.347-.018-1.073-.33-1.65.031-2.885-1.057-.589.067-.453.214-.5.12-.738-.254-.087-.219-1.129-1.65-.9-.839-.943-.545L110.7,192.18l-1.005.522-.583.982-.658.861-1.259.161-1.787.776-3.549,2.6-1.923.678-4.51-.482-.788.272L92.954,199.6l-3.7,1.524-1.812.339-1.961.036-1.843-.379-1.4-.838-2.693-3.023-.416-.7-.323-.87-.422-1.579-.689-1.794-.217-.92-.292-.2-4.064-4.6L71.76,186l-.5.206-.428.443L70.37,187l-.571-.08-.527-.4-.037-.268.124-.362-.025-.671.087-.085-.019-.9-.105-.859-.167.085.273-.447.484-.59.422-.662.062-.662-.918-.891-4.777-1.056-.521-1.455.552-2.97,1.042-3.106,2.128-4.149-1.365-2.357-2.128-2.266-1.148-1.986.323-1,1.582-1.861.428-1.457-.067-.853,1.135.066,2.857.567.72-.432.4.63.89,1.057.382.744-.009.447-.149.58-.065.647.223.647.744.512.807.171.642.512.267,1.532.279.79,3.816,6.664,1.343,1.814.444.852.686.892,2.3-1.3,1.976-1.3,1.415-1.762.692-.3,1.145-1.166.838-1.182.707-1.241.226-.655-.105-1.149.028-.274,1.036-1.136.726-.827,2.088-1.238.465-.789.019-.31.028-.247.084-.128.2-.119,1.945-.661h.357l.167.193.037.611-.056.431-.009.274.065.2.363.112.354.18,2.261-.755,1.371-.953.577-.7.13-.121.14-.081.866-.189,2.618-.027,1.436.432.158.09.354.092.372-.013.521-.133,2.144-.917.875-.783-.782-.441-.354-.468,1.377-.862,2.032-.619.186-.207.642-.513.13-.185.074-.324.093-.257.186-.167.288-.153,1.247.171,3.971,1.913.707-.063,7.312-5.326.7.214.912,0,.543-.095,1.266-.491,2.2-1.564,1.657-1.064.186-.252.223-.437-.009-.28-.084-.293-.13-.286-.158-.255-.093-.192.009-.12.112-.131.2-.18,1.957-1.216,1.545-.083,5.125.981.512.444,1.442.636,1.6.171.084.054.019.162v.225l.056.28.2.149.307.095.354-.013,3.13-.645,1.436-.514,2.764-1.556.636-.548.94-.607.624-.632.307-.438.251-.5.307-1.914.363-1.368.242-.7.357-.732,1.145-1.437.652-.1.493.237.14.228.1.384-.028.746-.13,1.08-.2.948-.428,1.418-.056.42.074.506.168.542.633,1.588.915,1.43Z" transform="translate(-15.229 -32.293)"/>
    <path id="Vaud_1_" class="cls-3" d="M65.706,104.76l.679.368.859,1.25.074.64.065.211,1.052-.551.512-.624.167-.263.158-.368.121-.442.149-.806.2-.4.223-.286.2-.041.158.059.167.2.121.073.14-.064.447-.508.121-.241-.037-.177-.372-.163-.2-.125-.158-.134-1.25-2.6-.233-.641L68.64,96.17l-2.479-1.007L61.645,98.9l3.763,5.266Zm14.456,30.305-.028-.374-.1-.266-.177-.262-.14-.246-.261-.751-1.8,1.434-3.446,1.051-.6.509-.431.613-.949,1.113-.633.532-.512.329-1.771.212-.437.176-.391.239-1.042.892-.586.671-.189.279-.112.232-.242.768-1.4.68-.056-.14-.2-.1-.13-.322-.2-.322-.186-.4-.112-.453-.047-.351-.2-.892-.4-1.023-3.332-2.483-.822-.316-.642-.023-.875.96-.437.32-.512.259-.878.129-.456-.1-.261-.133-.679-.953-.419-1.192.512-1.042.149-.036.791-.032.493.05.14.054.738.473.2-.14.168-.271,1.5-1.71.316-.456.112-.235-.1-.063-.223.023-.465.138-.261-.081-.41-.291-.679-.688-.316-.176-.236-.068-.67.178-.884.081-.475-.343-.354,0-.279.075-.512.223-.068-.117v-.3l.068-.384L53.3,129.9l-.028-.244-.009-.2.05-.086.149-.095.037-.178-.056-.458-.093-.492-.1-.964.009-1.028.037-.4.143-.908.717-.072.968-.678.679-.151.934-.034.344-.075.14-.122-.037-.1-.074-.145.019-.127.335-.877,2.075-3.057,1.753-2.408.223-.729-.065-.061-.763-.195-.2-.1-.223-.154-.158-.321.074-.158.782-.231.242-.177.233-.272,1.619-2.347-.1-1.219.344-.888.217-.342.27-.238.363-.245.6-.735.2-.372.047-.281-.065-.091-.074-.009-.289.1-.167-.136-.223-.327L64,106.675l.009-.4.1-.386.177-.37-.065-.361-.121-.3-.14-.179-.121-.061-.177.009-.214.064-.171.1-.1.1-.009.191-.019.145-.065.166-.074.068-.13-.016-.167-.141-.977-1.348-.354-.359-.2-.168-1.855-2.62L57.4,102.418l2.541,2.51.208.281.186.318-.093-.032-.149-.159-.133-.091-.121-.014-.391.172-.2.138-.177.152-.112.259.074.05.214-.032.279.05.354.175.627.5.186.265-.019.286-.363.587-.273.576-.112.286-.074.288-.056.3-.223,1.8.093.236.112.1.45-.218.372.059.1.131-.009.188-.242.419L60,113.035l-.186.181-.14.1-.465.145-.307.045-.847-.023-.261-.045-.27-.149-.307-.222-.261-.131-.422.122-.27.018-.409.159-.344.245-.493.073-.2-.014-.27-.082-.633-.3-.261-.059-.223-.014-.189-.054-.754-.362-.084-.093.056-.2.158-.209.112-.2.028-.177-.093-.17-.093-.063-.261.041-.14-.027-.149-.107-.67-.687-.214-.635-.3-2.3-1-2.214-.1-.356-.112-.567.037-.835-.047-.495-.177-.449-.493-.4-.326-.45-.158-.534.14-.842-.2-1.088-3.539,2.146-1.591,1.344-.924.608-1.815.617L37.622,105.9l-.828.656-.608.311-.521.1-3.093.154-1.106.2-.116.29-.416.755-.943,2.854-.087.426.167.494.316.431.447.494.025,1.479-.23.727-.676.851-.633.473-1.992,1.059-1.582,1.79-.6.5-4.3,2.368-8.072,7.409-.807,1.061.186,1.151,1.452,1.629-2.122,2.688-2.091,3.6-.682.739-.236.531v.446l.13.41.143.36.043.268v.664l.124.59-.112.574-.689.662.287.177,2.951,1.818.881.953.732,1.317.081.962-1.068,2.4.587.485,2.748,2.275,2.546-.824-.148-.518.323-1.186,1.266-1.725,1.712-2.268,1.948-1.693,1.849-.6,1.973-.092,1.948-.5,5.118-3.519,3.847-.766,4,.128,8.943,2.321.9.449h0l.558.864.063.8,1.135.066,2.857.567.72-.432.4.63.89,1.057.382.744-.009.447-.149.58-.065.647.223.647.744.512.807.171.642.512.267,1.532.279.79,3.816,6.664,1.343,1.814.444.852.686.892,2.3-1.3,1.976-1.3,1.415-1.762.692-.3,1.145-1.166.838-1.182.707-1.241.226-.655-.105-1.149.028-.274,1.036-1.136.726-.827-.065-1.757.121-.306.288-.485-.019-.3-.158-.243-.363-.189-.866-.884-.586-.47.679-2.137-.009-.459-.121-.7-.2-.529-.186-.754.177-.3.977-.59.549-.734.214-.594.037-.536-.14-1.18.037-.322.168-.34.316-.417.447-.868.186-.7.074-.712-.009-.563ZM52.395,117.7l-.447.579-.3.29-.4.362-.3-.145-.149-.579-.3-.29-.248-.434.149-.435h.4l.4-.507.5-.507h.4l.347.362.05.652Zm.347.217.2-.217.347-.29.447-.217.645-.29.248-.579.546-.724.347-.29.4-.58.248-.362.3-.217.347.362.2.435.4.145.5.29.3.652-.2.652-.447.869-.447.434-.447.217-.546-.217-.5-.217-.695-.362-.447.145-.695.652-.5.072h-.4Z" transform="translate(-1.903 -22.949)"/>
    <path id="Uri_1_" class="cls-4" d="M209.456,99.007l1.368-.093.3.134.177.252.288.963.437.654.354.123.4-.159.614-.5.568-.313.456-.164.707-.359.428-.1.316.155.4.332.549.1,1.694-.043.419.17.177.332-.037.386.028.413.177.3.348.386L220,102l.14.268.065.967.149.522.223.161.261-.079.391-.395,1.5-.7.273-.084,2.708-1.549.813,1.467.1.25.149.554.037.511-.028.885-.251.47-.4.349-1.284.533-.27.054-.2,0-.158.03-.177.143-.279.29L222.2,107.81l-.1.56.056.431.037,1.682-.651.861-.679.376-.4.435-.419.163-.447.109-.171.215.04,1.04-.087.734-.549.693-.484.833-.065.19-.019.118.056.8-.2.294-.2.14-.9.2-.242-.025-.9-.324-1.052.371-.6.634-1.4,1.823-.589.335-.6.131-.977.436-.409.36-.214.366.009.285.046.228-.028.346-.1.452-.437,1-.422,1.372-.047.484.074.5.121.355.18.273.2.151.27.133.242.172.149.278.316,1.061.13.716-.177,1.185-2.5,1.085-5.261-1.207-.692.038-.447.129-.2.19-.149.21-.465,1.39-.233.571-.14.453-1.976,1.66L196.117,134l-.915-1.43-.633-1.588-.168-.542-.074-.506.056-.42.428-1.418.2-.948.13-1.08.028-.746-.1-.384-.14-.228-.493-.237-.186-1.13-.261-.719-.019-1.04.288-.335.382-.052,1,.26.478.027.437-.109.2-.326.084-.4.065-.527.009-.375-.047-.362-.1-.353-.019-.484-.1-.348-.335-.7-.186-.527-.056-.813.065-.416.512-1.211,1.945-.6.121-.426.065-.437-.1-.44-.047-.3-.056-.2-.177-.116-.149-.141-.14-.358.261-.519.14-.632.344-1.124.326-.617.45-.494.177-.268.074-.209-.037-.159-.1-.184-.158-.157-.506-.118-.214-.15-.633.057-.251-1.767.121-.622-.093-.574-.158-.384-.447-.667.037-.291.13-.172,1.005-.695,3.056-1.581.7-.645.251-.291.18-.348.828-2.607.084-.459-.093-.534,1.759-.1.233.1.3.175.093.316.226,1.232.242.789.447.368.344.159.53.118,1.266.473Z" transform="translate(-46.84 -22.961)"/>
    <path id="Ticino_1_" class="cls-5" d="M232.9,149.909l.13-.077.27-.108.9-.131.689,1.3.019.52-.028.7-.121.954.1.729.223.61.3.592.046.355-.14.38-.2.844-.251.711.065,2.63-.214.6-.921,1.735-.1.586.046.577.1.544-.1.422-.242.566-.493.593-.028.352.093.431.484,1.216.624,1.245.037.323.019.433-.177,1.115.112.457.2.455.475.778.4.359.99.69,1.256,1.535.521.513,1.371,1.017.012,0,.026.009-.033.062L235,179.5l-1.111,1.67-.236,1.119.13,1.95-.192,1.064-.478.809-.571.335-1.315.416-1.539,1.193-.261.983,1.067,3.01-1.973,1.826-.13.214-.043.223.043.219.13.219.645.656.5,1.57.546.812.583.335,1.309.263.565.361.682,1.431-.23,1.466-1.5,2.918-1.917,2.36-1.805-.338-1.967-.877-2.376.726.223-1.327.36-1.024.242-1.069-.1-1.493-.335-1.128-.5-1.128-1.042-1.859-.589-1.378-.391-.549-.4-.317-3.443-1.852-.918-.326-1.03-.067.1-.232.23-.415,1.055-2.43,1.719-2.1.887-2.029-1.526-2.021-.906-.318-1.843.045-.962-.134-.459-.313-.441-.81-.191-.07-.306-.113-.372.175-.931.828-.428.242-1.055-.054-2.8-1.638-1.16-.4-.583-.3-3.791-5.616-1.706-1.757-1.656-.838-1.57-.632-1.1-.915-.658-1.395-.236-2.118.2-2.236.974-4.5.2-2.506-.031-2.627-.248-1.967-.825-1.2-1.725-.3-.8.172,0-.035-.019-.347-.056-.653.149-.563.251-.622.307-.586.037-.189-.019-.171-.074-.171.028-.207.2-.2.531-.165,1.377-.167,1-.663,1.759-2.38,1.976-1.66.14-.453.233-.571.465-1.39.149-.21.2-.19.447-.129.692-.038,5.261,1.207,2.5-1.085,2,.923,4.631.426,3.539-.62,3.046-1.223.577-.429.13-.289-.037-.284-.13-.271-.065-.393.093-.438.437-.614.419-.235.465-.181.58-.131.493-.479.335-.023.177.149.065.461.167.434.3.488,2.041.2.3.124.419.257.679.284.791.761.149.2.047.273-.121.336-.447.846-.2.517-.168.632-.1.546-.121,1.037-.093.469-.093.347-.047.268.372,1.679.158.464.177.4.642,1.086.652.955Z" transform="translate(-46.513 -32.943)"/>
    <path id="Thurgau_1_" class="cls-5" d="M227.459,15.228l.044.044,1.743,1.306,1.47.387,2.351-.223,2.184-.7L236.207,15l1.135-.451,6.694.755h3.319l.813,1.274,2.246,0,2.333.541L269.212,27.4l.335,1.57-.014,0-4.765,1.559-.54.2-.289.055-.223-.023-.6-.312-.056-.133L263,30.211l.27-.822-.608-.4L259.6,31.3l-.413.824-.391-.149-.521-.431-1.34-1.738-.14-.42.2-.48.028-.328v-.363l-.558-.891-.85.028-.3.092-.279.129-.3.283-.177.069-.493.03-.344.074-.372.138-.233.175-.186.234-.152.092-.1,0-.13-.069-.112.041-.1.115.009.23.223.147.636.092.372-.073.326-.133.261.007.186.057.307,1.332-.223.686-.14.273-.223.344-.326.239-.41.133-.5-.119-.347.028-.549.305-.233.186-1.061-.147-2.339-.523-1.964-.946-.9-1.065-.54.983-.279.34-.475.275-1,.156-.748.007-.754-.2h-.233l-.531.087-.177-.046-.14-.154-.121-.223-.158-.165-.2-.037-1.036.165-.363-.014-.475-.174-.214.06-.5.537-.251.092-.326.069-.363.142-.2.39.056.45.13.289,1.666,1.193v.317l.084.9-.028.3-.112.222-.214.14-.419.041-.326.085-.3.126-.279.165-.233.06-.2,0-.227-.087-.27.1-.223.321-.67,1.527-.586.692-.828,1.505-.493.662-.608.041-2.392-2.539.456-.619.13-.291.112-.4.084-.624.354-.417v-.124l-.484-.271-.6-.587-.289-1.817-.589-.379-.13-.255-.14-.516.019-.287.046-.161.1-.106.27-.188.124-.147.112-.23V30.89l-.037-.115-.028-.165.028-.214.344-1.871.028-.266-.158-.294-.422-.34-1.777-.726-.6-.349-.354-.414-.233-.8.279-.6.112-.156-.326-.469-.335-.368-3.822-1.886-.726-.239-.54-.665-.2-.32-.019-.193.13-.193.363-.3.428-.152.428.067.869.444.326.345.27.209.251.046h.2l.372-.695.521-.585.456-.888.251-.382.1-.442-.093-.368-.679-.792-.233-1.184-.986.428.707-1.709h.047l.53.263.695-.3Z" transform="translate(-53.297 -3.385)"/>
    <path id="Solothurn_1_" class="cls-6" d="M116.678,39.485l.084.2.13.22.977.023,3.809-.8-.037-2.354-.1-.28-.158-.308-.484-.1-1.154-.443-.955.116.009.033-.006.232-.081.252-.105.149-.918.831-.775-.115-.511-.327.074,1.966Zm.27,3.132.037-.323-.046-.259-.549-.963-.14-.172-.14-.048-.4,0-.149-.032-.167-.1-.14-.144-.074-.089-.292-.468-.015-.019-.853,1.12-1.088.44-.239,1.791,3.372-.131Zm34.39,2.067-.754-.215L150,44.14l-.521-.5-.279-.408-.261-1.226-.4-.25-.065-.8.056-.183-.019-.289-.1-.284-.521-.633-.931-.17-.316.952-.288.571.009.2.1.335.177.339.2.33.037.413-.354.461-1.135.832-1.269.353-.772.06-.475-.037-.3.1-.335.939-.2.412-.161.22-1.47.669-.447.344-1.247.357-.748.5-.94,1.614-.214.609-1.275-.375-.357-.174-.409-.266-.447-.536-.586-.43-1.266-.673-1.492-.362-2.113.2-.316-.128-.2-.238-.335-1.122-.093-.518-.065-.66.056-.738.558-.151,1.427-.422.27-.14.5-.626.186-.743.028-1.124.056-.275.121-.227.168-.158.242-.151.242-.206.177-.271.273-.537.279-.372-.186-.33-.2-.23L129.5,36.392l-.484-.034-.009.37-.14.225-.242.165-1.622-.17-.493.11-.382,1,.921.454.149.314.037.211L126.552,41l-.735.759-1.362.115-.326.135-.046.5.065.353.14.289-.084.179-.307.1-1.722.14-.233.1-.226.195-.177.454-.214.387-.27.4-.437.279-.568.156-.977-.151-1.027-.591-.428-.078-.819.183-.931,1.462,2.916.747,1.163.119.437-.027.493.169.5.369.561.939.968.808.456.126.158.181.167.249.1.359.046.394-.065.467-.084.254-.512.041-.158.22-.456,1.361-.354.425-.561.391-1.964.631-.419.258-.512.412-.682.754-.558.48-1.34.544-1.269,1.083.158.621-4.5,2.026-.158.422.307.721.214.32.167.511.186.24.289.171.664.246.289.215.149.274.409,1.018.037.269-.037.192-.028.187.14.1.372.089.623-.112.484-.265.468-.593.54-.493.326-.379.493-.128.447-.383.316-.169.931-.187.14,1.132.084.42.2.233.279.233.2.31-.2.465-.654.456-.419.1-.363-.1-.289-.169h-.2l-.661.55-.372.563-.112.424.121.844-.046.422-.456.271-1.064.287-.279.03-.614-.162-.382.014-.679-.123-.2.066-.093.385.065.278.167.342.2.326.363.759.344.292.214.1,1.715-.494.5-.1.14.041.047.8.521,1.187,1.107-.376.382-.237.214-.3.046-.506-.093-.419-.307-.784-.009-.378.2-.253,1.6-.745.865-.78,1.576-2.308.838-.817.67-.1,1.61,1.118,2.767.087.363-.059.627-.643.372-.568.558-.3.2-.187.158-.287.093-.274-.1-.507-.307-.717-.856-1.55-.962-1.423-1.1-.5-1.117-1.352-.047-.681-.186-.635-.074-.331-.859-1.033,4.008-.5,2.168-.974,2.032,2.446.7.446,1.657.085,1.166-.439.568.206,2.078-.51.447-.565,1.452-2.891.177-.233,2.665-2.448.437.1.521.2,3.828.581.431-.229.484-.32.819-1.921.679-1.03.437-1.008Z" transform="translate(-26.635 -8.556)"/>
    <path id="Schwyz_1_" class="cls-5" d="M219.39,68.883l5.652-.569,1.874.578-.168.845-.046.546.009.219.391.746,1.6,1.618-1.154,3.722v.5l-.177.985-.14.36-.279.469.14,1.153-.056.636-.6,1.227-.475.722-.524.594-1.489.71-.679.505-.289.979.838.774,1.684,2.436.009.139-.167.3.019.255.261.477.292.3.959.655.233.4.1.554-.233,1.177-.288,1.054-1.278.649-2.708,1.549-.273.084-1.5.7-.391.395-.261.079-.223-.161-.149-.522-.065-.967-.14-.268-.372-.032-.347-.386-.177-.3-.028-.413.037-.386-.177-.332-.419-.17-1.694.043-.549-.1-.4-.332-.316-.155-.428.1-.707.359-.456.164-.568.313-.614.5-.4.159-.354-.123-.437-.654L211,92.794l-.177-.252-.3-.134-1.368.093-.441-.066-1.266-.473-.53-.118-.344-.159-.447-.368-.242-.789-.226-1.232-.093-.316-.3-.175-.233-.1-1.759.1-4.33.575-1.464-1.03,1.985-1.055.2-.448.214-.682-.2-.428-.223-.316-2.3-2.133-2.4-.633-.921.428-.661-.36-.326-.442-.093-.483.084-.287.54-.569.2-.294.093-.326.019-.456.065-.337.186-.319.326-.314,1.846-1.121.624-.465.6-.3.428.162.624.055,1.045,2.37,3.093-.269.326.073.251.178.493.483.521.011.717-.153,1.371-.5.81-.159.81-.333.661-.5,1.678-2.038.456-1.3,1.07-1.145-1.107-.769L210.5,72.7l-.344-.481-.065-.18-.009-.235.046-.233.093-.276.354-.422.6-.536,2.339-1.5,2.6-.532Z" transform="translate(-46.546 -16.454)"/>
    <path id="Schaffhausen_1_" class="cls-6" d="M204.12,18.866l-.807.271-.539-.665-1.285,1.244-.056.662.251.159.409.4.186.223.152.251.177.218.214.078.2-.021.465-.692.772-2.046-.015-.312Zm15.821-8.494,1.1-.258-1.551-1.473-1.961-1.146-1.613-.074-.54,1.75.49.551-3.17.046-.118-.581-.149-.68-.478-.592-.254-.728.2-.583.8-1.206.161-.337-.4-.9-.589-.115-.664.138-.62-.141-.447-.711L209.673,2.3l-.577-.879-.775-.259-.546.573-.31,1.948-.744.489-.589-.441-.211-1.085-.056-1.154-.093-.651-1.111-.5-1.5-.083-.955.55.558,1.408-.906.462-3.232.646-.67-.019-.471.282-.813,1.2-.279.65-.453,1.785-.639.6-1.52.837-.589.675-.068.659.254.652.149.76-.385.965.943.348.3.046,1.539,1.177,1.241.709,1.067-.046.887-.46.831-.6.9-.454,2.916-.5.838.143.684.282L205.3,13l.831-1.108,1.027-.97.416-.8.5-.512,2.59.069-.192,1.364.1,1.419.251.5.372.58.419.267.53.18,2.451.1.363-.14.279-.2.251-.262.177-.127.149-.041.254.012.27-.078.242-.175.27-.322.14-.138.707-1.709h.047l.53.263.695-.3,1.826.979-.849-.852Z" transform="translate(-46.635)"/>
    <path id="Sankt_Gallen_1_" class="cls-5" d="M260.9,42.692l-1.325-.018-2.159.362-2.711.55-.977-.321-.431,0-2.15.325-.54-.1-.2.257-.31.532-.586,1.306-.456.8-.745.705-.093.176.782,1.55.6-.146h.261l.2.142.074.3-.261.483-.2.3-.391.416-.112.355-.037.561.419,1.985-.7.832.447.533.251.151.549.162,2.99.393,1.846,1.024.623.475.168-.009.214.014,1.008-.267.791.578.521.21.419.27.53.11.382.018,1.7-.649,1.173-.606.865-.628.831-.933,1.173-2.2,1.024-5.043-.409-1.337.316-2.229,1.622-.635.763-.119.847.433,2.562-1.6-.1-.811.1-.653.13-.213,1.387-1.385-2.448-.422-.934-.372L270,38.18l-.409-.358-.177-.092-.5-.124-.13-.06-.14-.094-.242.021-.326.179-1.259,1.142-3.006,1.353-.506.2-.707.161-.316.546-.2.541-.1.468-.363.408Zm-1.017-6.4.413-.824,3.062-2.314.608.4-.27.822.065.115.056.133.6.312.223.023.289-.055.54-.2,4.765-1.559.014,0,.114.532,1.774,2.681,2.234,1.023,1.719,1.519-.05,3.76L275.449,44l-2.327,2.948-.279.794-.31,1.561-.23.609-2.047,2.475-1.929,3.279-.993,1.686L266.3,60.336l-.143,2.974.459,1.46.651,1.273.5,1.414.031,1.883-.571,1.176-.918.948-.7.945.068.822.009.344.456,1.477.667,1.468,1.83,3.119.335.687-.456.123-.354.214-.279.311-.223.821-.168.366-.561.439-.307.377-.409.75-.307.682-.186,1.045.028.418-.065.454-.168.474-.791,1.4-.754.25-.177.722-.189.082-.428-.048-.67-.511-1.228-.622L253.242,86.9l-.261.148-.316,0-.214-.059-.949-1.122.121-.822-.065-.334-.465-1.052-.2-.772-.028-.323.121-.273.056-.225.279-2.53-.093-.623-.261-.778-.791-1.629-.5-.674-.484-.364-.437.041-.447.141-.67.337-1.12.123L246.125,76l-1.108-.642-.037-.166.149-.214,2.078-1.457.335-1.236.3-4.195-6.316-1.238-.912-.522-3.149-2.87-.354-.014-.962.522-1.6-1.618-.391-.746-.009-.219.046-.546.168-.845-1.874-.578-5.652.569-3.279-.58.828-2.047,1.107-.873,2.469.345.782-.069,3.539-1.648.558-.508.279-.418-.047-.729.338-.549.447-.6.772-.672.372-.444.186-.343-.177-.7-.344-1.893-1.427-2.581-.261-.385.608-.041.493-.662.828-1.505.586-.692.67-1.527.223-.321.27-.1.227.087.2,0,.233-.06.279-.165.3-.126.326-.085.419-.041.214-.14.112-.222.028-.3-.084-.9v-.317l-1.666-1.193-.13-.289-.056-.45.2-.39.363-.142.326-.069.251-.092.5-.537.214-.06.475.174.363.014,1.036-.165.2.037.158.165.121.223.14.154.177.046.531-.087h.233l.754.2.748-.007,1-.156.475-.275.279-.34.54-.983.9,1.065,1.964.946,2.339.523,1.061.147.233-.186.549-.305.347-.028.5.119.41-.133.326-.239.223-.344.14-.273.223-.686-.307-1.332-.186-.057-.261-.007-.326.133-.372.073-.636-.092-.223-.147-.009-.23.1-.115.112-.041.13.069.1,0,.152-.092.186-.234.233-.175.372-.138.344-.074.493-.03.177-.069.3-.283.279-.129.3-.092.85-.028.558.891v.363l-.028.328-.2.48.14.42,1.34,1.738.521.431Z" transform="translate(-53.993 -7.553)"/>
    <path id="Obwalden_1_" class="cls-6" d="M192.99,107.774l-.1-.184-.158-.157-.506-.118-.214-.15-.633.057-2.916.109-.624-.49-.223-.533-.279-.123-.27.014-1.145.758-.223.068-.115-.023v-.1l.047-.191.009-.25v-.333l-.316-.456-.214-.068-.251.172-.223.436.028.3.2.408.112,1.027.084.42.344,1.109.019.3-.037.3v.229l.149.14.45.286.084.179.056.383.028.131.056.1.093.118.2.227.233.421.177.227.233.2.94.392.177.177.112.3-.14.163-1.712.546.568.476.41-.224.8-.163h.307l1.194.428,1.945-.6.121-.426.065-.437-.1-.44-.047-.3-.056-.2-.177-.116-.149-.141-.14-.358.261-.519.14-.632L192,109.52l.326-.617.45-.494.177-.268.074-.209Zm-10.367,2.8-.149-2.07.093-.832.074-1.778.288-1,.084-.406.009-2.347-.121-.363-.3-.277-1.418-.663-.363-.341-.307-.4.084-.586.149-.3.2-.279.167-.3.167-.409.1-.364.093-.448-.158-.23-.2-.136-2.292-.7h-.242l-.261.091-.316.191-.354.157-1.014.246-3.335.32-1.005.664-.133.232.226.782.065.438-.093.436-1.213,1.129-1.433,1.826-.261.077-.14-.089-.084-.211-.112-.1-.2-.032-.338.018-.289.113-.251.213-.437.636-.2.427-.223.642-.214,1.255-1.042,2.391-.14.463.2.911.3.63.316,1.364-.977,1.561,1.9.1,1.154.254,2.032,1.336.614.426.717.326.45.127.316-.063,1.415-.548.707-.145,3.139.389,1.157.367.586.02.651-.256,2.013-1.4,2.624-1.033-1.247-.745Z" transform="translate(-39.987 -23.237)"/>
    <path id="Nidwalden_1_" class="cls-4" d="M194.349,94.237l1.464,1.03,4.33-.575.093.534-.084.459-.828,2.607-.18.348-.251.291-.7.645-3.055,1.581-1.005.695-.13.172-.037.291.447.667.158.384.093.574-.121.622.251,1.767-2.916.109-.624-.49-.223-.533-.279-.123-.27.014-1.145.758-.223.068-.115-.023v-.1l.047-.191.009-.25v-.333l-.316-.456-.214-.068-.251.172-.223.436.028.3.2.408.112,1.027.084.42.344,1.109.019.3-.037.3v.229l.149.14.45.286.084.179.056.383.028.131.056.1.093.118.2.227.233.421.177.227.233.2.94.392.177.177.112.3-.14.163-1.712.546-1.408-1.262-1.247-.745-1.238-1.711-.149-2.07.093-.832.074-1.778.288-1,.084-.406.009-2.347-.121-.363-.3-.277-1.418-.663-.363-.341-.307-.4.084-.586.149-.3.2-.279.167-.3.167-.409.1-.364.093-.448-.158-.23-.2-.136-2.292-.7h-.242l-.261.091-.316.191-.354.157-1.014.246-.288-.671.037-.35.2-.443.335-.23,1.154-.4,1.027-.214,1.461.009.754-.132.7.027.748.148,1.294-.45.921-.466.651.387.031.216.028.08.084.082,1.982.043.6-.189.056-.414.53-.519.85.177.828.792Z" transform="translate(-43.406 -22.342)"/>
    <path id="Neuchtel_1_" class="cls-4" d="M63.028,74.684l1.241.675.679.912.363.78.14.463.065.363-.065.579-.242,1.121-.056.132-.065.123-.233.232-.065.084-.14.631.028.551.149,0,9.148-2.853.419-.107.037,1.21.828.219L77,80.78l.468.406.233.383-.009.15-.084.1-.149.1-.093.068-.065.1.019.139.047.15.056.141.056.23.1.69.009.228v.246l-.028.155-.047.191-.093.168-.18.1-.214.089-.167.109-.391.348-.233.157L74.9,85.8l-.223.278-.186.4-.326,1.461-.282.619-.568,1.59L68.8,93.883l-2.311,1.91L64.548,97.4,58,102.835l-1-2.214-.1-.356-.112-.567.037-.835-.047-.495-.177-.449-.493-.4-.326-.45-.158-.534.14-.842-.2-1.088-3.539,2.146L50.437,98.1l-.924.608-1.815.617-2.925,1.561-.828.656-.608.311-.521.1-3.093.154-1.106.2.219-.549.1-1.216-.192-.971-.8-1.53-.248-.795.893-3.084,2.91-1.691,6.459-2.037,4-3.059,1.371-1.987-.72-1.635.807-1.4.565-.558,1.508-.542.223-.56.223-.155.862-.447-.074-1.509,1.8-.629,3.8-3.526Z" transform="translate(-9.053 -17.932)"/>
    <path id="Lucerne_1_" class="cls-5" d="M183.395,73.475h.047l.745,1.211.512.128.27.13.254.057.084.082.344.953L183.8,77.157l-.326.314-.186.319-.065.337-.019.456-.093.326-.2.294-.54.569-.084.287.093.483.326.442.661.36.921-.428,2.4.633,2.3,2.133.223.316.2.428-.214.682-.2.448-1.985,1.055-.316-.616-.828-.792-.85-.177-.53.519-.056.414-.6.189-1.982-.043-.084-.082-.028-.08-.031-.216-.651-.387-.921.466-1.294.45-.748-.148-.7-.027-.754.132L175.19,86.2l-1.027.214-1.154.4-.335.23-.2.443-.037.35.288.671-3.335.321-1.005.664-.133.232.226.782.065.438-.093.436-1.213,1.129-1.433,1.826-.261.077-.14-.089-.084-.211-.112-.1-.2-.032-.338.018-.289.114-.251.213-.437.636-.2.427-.223.642-.214,1.255-1.042,2.391-.14.463.2.911.3.63.316,1.364-.977,1.561-1.222-.084-1.042.426-.893.505-.468.088-.372-.1-.791-.965-.707-1.1-3.968-3.182-.934-1.02-.028-.685-.549-1.738.1-.413.558-.561.2-.506.046-.64-.13-1.067.009-.522.1-.372.223-.161.521-.207.447-.3.149-.032.484.114.307-.05.288-.214.186-.323.13-.341.093-.17.316-.239.115-.182.065-.273.065-.545.112-.239.2-.284.14-.246.2-.8.168-.373.391-2.035-1.284-.268-.431-.359-1.582-.146-.214-1.422-.307-.38L152,82.481l-.512-.7-.143-.615v-.544l.189-1.792V77.084l.112-.912.186-.593.484-.871-.521-2.673-.009-.9-.2-.7-.32-.776-.27-.511-1.554-3.585,3.67-.749,1.368,0,1.529-.551.233-.18.093-.107.037-.085.047-.176.028-.3-.065-.752-.009-.7.047-.238.093-.114.251-.039,1.284-.027.924.386,1.34,2.656,4.135-1.613.9.946,1.2.4,1.629.062.543.219.167.139-.437.178-.084.085v.126l.1.176.074.295.112.146.223.219.279.194.409.18.54-.057.977-.731,1.362-2.433.27-.718,1.005-1.18,1.014-.105.99.412.354.336.335.51.186.864.251.75.456,1.01,2,5.749.214.429.661,1.036.437.543.326.3.744.36Z" transform="translate(-36.075 -14.714)"/>
    <path id="Jura_1_" class="cls-4" d="M83.136,36.521,86.127,36l1.415.3.782.452.111.018.689.111,1.632-.165-1.092,2.52L90,40.678l1.3.784,1.762.555.248.2.167.319.242.321.465.2.4-.082,2.271-.99,1.588-.335,1.671.072.147.254.186.154,2.506,1.256,1.619,1.313.419.678.093.706.2.192.189.105.651,0,2.916.747,1.163.119.437-.027.493.169.5.369.561.939.968.808-.977.916-.143.588.05.281.214.142,1.126.144-.158.22-3.586,1.023-6.567-.531-.586-.247-.121-.325-.214-.435-.167-.064-.143.156-.121.384-.223.311-.335.325-.484.21-.279.2-.251.256-.465.375-.689.435-1.539.556-.921.194-1.145.069L90.4,53.659l-.149.906.1.386-.112.332L90,55.543l-.6.448-.112.27-.028.2.009.283.112.631.121.366-.307.306-2.953.558-1.874-.174-.391.073-.242.242-.112.5-.056.146-.093.21-.437.653-.288.575-.428.589-.636.639-.959.5-.558.409-.651.66-.623.126L77.525,63.7l-.7.388-2.153,1.67-.67.4-.465.123-.251-.135-.2-.237-.549-.454-1.65-.125-.7-.269.133-.123,1.142-1.889,1.743-1.8,4.076-3-.242-2.194.385-1.815,1.129-1.166L79.091,53l.323-.128.875-1.187.627-.368.614-.169.565-.362.465-.973-.627-.9-.9-.82-.893-.73-1.1.534-7.141.705.3-1.133.744-1.386.887-1.164,1.545-.912.093-1.673,1.576-.353.974-.564.893-.764.453-.748-.292-1.058-.62-1.228-.149-.989,1.117-.342.534-.42.54-.14.546.14.546.42Z" transform="translate(-16.908 -8.579)"/>
    <path id="Graubnden_1_" class="cls-2" d="M268.35,87.554l1.235-.394,1.123.3,3.146-.392,1.005.153L286.2,90.806l-.1,1,.254.218.372-.03.229.273v.518l-.248.841-.149,2.064-.192.948.1.825.763,1.086,1.489,1.145,6.421,2.077,2.32,2.212,1.352.785,2.593.835.834.032.407.016,1.551-.442,2.618-1.336.614-.9.161-.672.05-.74.285-1.112.912-1.542.974-.182,1.166.307,1.5-.07.031-1.642,1.048-2.018,1.514-1.741,1.743-1,.329-.066.335.066.316.207h.006v.014l.62.669,1.253,2.023,2.041,1.627.534.641.323,1.483-.745,2.985.143,1.874-.316,2.826-.217.789-.354.558-1.309,1.582.112,1.3.428,1.275.149,1.207-.726,1.107-1.017.654-.242.8.056,1-.13,1.242-.577,1.033-.651.622-.285.832.5,1.672,1.086,1.265,2.556.276,1.253,1.057.453,1.685-.043,2.255-.478,2.163-.367.611-.471.783-1.086.21-4.3-1.134-2.091.2-.769-.126-.676-.313-.378-.4-.316-.44-.471-.42-2.476-.853-.267-.948.329-1.795-.118-.987-.955-.786-1.545.014-5.683,1.642-.577.318-.261.646L299,130.355l-.5.668-1.3,1.3-.515.776-.081.627-.012,1.916-.261.928.074.807.143.633.292.489.521.356-1.061,1.806.943,1.179,1.762.689,2.686.522,1.036.418.441.967-.453,1.9-.434.585-1.259,1.133-.453.845-.3,1.177-.037.8.242.732.546.97L303.5,155.1l.769,1.548-.788,1.66-1.675,1.058-2.531.964-1.985-.04-.05-1.96-.608-1.476-2.37-2.109-.881-1.194-.391-1.9-.025-1.721-.4-1.416-1.5-.989-1.235-.321-1.166-.088-2.618.452-4,2.059-1.247.407-.769-.166-1.464-.885-.645-.016-.651.739-.118.993.093.986-.025.685-.918,1.275-1.129.458-6.88-.081-1.4-.512-1.272-.867-.763-1.056-1.2-3.136-.534-.441-1.328-.74-.434-.427-.118-.488.087-1.327-.36-8.356-.192-.547-.471.106-.968.716-.41.556-.211.619-.292.522-.651.261-.453-.2L255.8,137.24l-.043-1.079-1.191-.318-2.922.361-1.148,1.068-1.042,2.1-.472,2.134.577,1.177.8.556.118.873-.155,1.1.006,1.243.807,3.086.081,1.119-.372,1.913-1.756,3.681-.893,3.109-.546.879-.695.65-.72.341-.651.484-.335.86-.279,1-.439.834-.026-.009-.012,0-1.371-1.017-.521-.513-1.256-1.535-.99-.69-.4-.359-.475-.778-.2-.455-.112-.457.177-1.115-.019-.433-.037-.323-.624-1.245-.484-1.216-.093-.431.028-.352.493-.593.242-.566.1-.422-.1-.543-.046-.577.1-.586.921-1.735.214-.6-.065-2.63.251-.711.2-.844.14-.38-.046-.355-.3-.592-.223-.61-.1-.729.121-.955.028-.7-.019-.52-.689-1.3-.9.131-.27.108-.13.077-.422-.189-.652-.955-.642-1.086-.177-.4-.158-.464-.372-1.679.047-.268.093-.347.093-.469.121-1.037.1-.546.168-.632.2-.517.447-.846.121-.336-.047-.273-.149-.2-.791-.761-.679-.284-.419-.257-.3-.124-2.041-.2-.3-.488-.167-.434-.065-.461-.177-.149-.335.023-.493.479-.58.131-.465.181-.419.235-.437.614-.093.438.065.393.13.271.037.284-.13.289-.577.429-3.046,1.223-3.539.62-4.631-.426-2-.923.177-1.185-.13-.716-.316-1.061-.149-.278-.242-.172-.27-.133-.2-.151-.18-.273-.121-.355-.074-.5.047-.483.422-1.372.437-1,.1-.452.028-.346-.046-.228-.009-.285.214-.366.409-.36.977-.436.6-.131.589-.335,1.4-1.823.6-.634,1.052-.371.9.324.242.025.9-.2.2-.14.2-.294-.056-.8.019-.118.065-.19.484-.833.549-.693.087-.734-.04-1.04.171-.215.447-.109.419-.163.4-.435.679-.376.651-.861,1.25.059.623.229.289.052.112.233.14.582.233.163.568-.014,3.316-1.029,1.362-.644.856-.8.437-.578.3-.626.177-.435.167-.356.168-.27.074-.3-.009-.674.047-.322.14-.209.4-.2.589-.127,1,.091.577.2.437.318.27.381.493.181.6-.168,2.047-1.409.869-.188,1.135-.016.493-.218.316-.2,1.024-1.419,1.669-1.5.949,1.122.214.059.316,0,.261-.148,8.041,1.176,1.228.622.67.511.428.048.189-.082.177-.722.754-.25.791-1.4.168-.474.065-.454-.028-.418.186-1.045.307-.682.409-.75.307-.377.561-.439.168-.366.223-.821.279-.311.354-.214.456-.123-.335-.687-1.83-3.119-.667-1.468-.456-1.477-.009-.344,1.352.4Z" transform="translate(-51.645 -20.864)"/>
    <path id="Glarus_1_" class="cls-4" d="M248.331,86.3l1.12-.123.67-.337.447-.141.437-.041.484.364.5.674.791,1.629.261.778.093.623-.279,2.53-.056.225-.121.273.028.323.2.772.465,1.052.065.334-.121.822-1.669,1.5-1.024,1.419-.316.2-.493.218-1.135.016-.869.188-2.047,1.409-.6.168-.493-.181-.27-.381-.437-.318-.577-.2-1-.091-.589.127-.4.2-.14.209-.047.322.009.674-.074.3-.168.27-.167.356-.177.435-.3.626-.437.578-.856.8-1.362.644-3.316,1.029-.568.014-.233-.163-.14-.582-.112-.233-.289-.052-.623-.229-1.25-.059-.037-1.682-.056-.431.1-.56,1.557-1.168.279-.29.177-.143.158-.029.2,0,.27-.054,1.284-.533.4-.349.251-.47.028-.885-.037-.511-.149-.554-.1-.25-.813-1.467,1.278-.649.289-1.054.233-1.177-.1-.554-.233-.4-.959-.655-.292-.3-.261-.477-.019-.255.167-.3-.009-.139-1.684-2.436-.838-.774.288-.979.679-.505,1.489-.71.524-.594.475-.722.6-1.227.056-.636-.14-1.153.279-.469.14-.36.177-.985v-.5l1.154-3.722.962-.522.354.014,3.149,2.87.912.522,6.316,1.238-.3,4.195-.335,1.236-2.078,1.457-.149.214.037.166,1.108.642Z" transform="translate(-55.807 -17.743)"/>
    <path id="Genve_1_" class="cls-1" d="M13.418,173.817l2.546-.824.1.348.552,1.477.031.35.577,1.436.254.368.627.328,1.005-.462.422.184.31,2-1.551,1.646-3.84,2.55-3.065,3.6-1.948,1L7.4,186.905l-2.736.107-2.724.649-1.446.864.8-1.88.459-.873.186-.744L.877,183.694.25,182.506l.223-1.044,1.464-.933,3.6-1.767.1-.031.1-.009.112.009.472.152.36.045.347-.04,1.321-.413.261-.579-.056-.8.031-.938.428-2.46.2-.678.874-1.961.587.485Z" transform="translate(0 -41.299)"/>
    <path id="Fribourg_1_" class="cls-3" d="M101.3,120.983l-.093-.154-.261-.19-.233-.106-.158-.122-.13-.188-.171-.154-.2-.041-.251.029-.223-.079-.186-.167-.251-.448-.521-.416-.288-.176-1.042-.407-.2-.177-.133-.281-.233-.665-.13-1.283.037-2.294.14-1.386.7-2.905.028-1.288-.158-.9-.186-.4.065-.268.437-.367.354.064.112.075-.028.229.093.118.2.127.363,0,.344-.191.568-.472.289-.717-.289-1.974-4.8-.431-3.084-.89-.623.118-.279,0-.2-.111-.037-.225.419-.89.158-.509.065-.436-.149-.931-.037-.563-.065-.384-.14-.339-.335-.575-.019-.239.121-.141.772-.389.326-.266.624-.775.13-.325-.391-.568-.065-.518-.009-.073-.047-.114-.167-.209-.558-.152-1.4.6L86.9,95.28l-4.824.482.419,2.959.233.641,1.25,2.6.158.134.2.125.372.163.037.177-.121.241-.447.508-.14.064-.121-.073-.167-.2-.158-.059-.2.041-.223.286-.2.4-.149.806-.121.442-.158.368-.167.263-.512.624-1.052.551-.065-.211-.074-.64-.859-1.25-.679-.368-.3-.595-3.763-5.266-2.311,1.91,1.855,2.62.2.168.354.359.977,1.348.167.141.13.016.074-.068.065-.166.019-.145.009-.191.1-.1.171-.1.214-.064.177-.009.121.061.14.179.121.295.065.361-.177.37-.1.386-.009.4.158.794.223.327.167.136.289-.1.074.009.065.091-.047.281-.2.372-.6.735-.363.245-.27.238-.217.342-.344.888.1,1.219-1.619,2.347-.233.272-.242.177-.782.231-.074.158.158.321.223.154.2.1.763.195.065.061-.223.729-1.753,2.408L70.9,122.051l-.335.877-.019.127.074.145.037.1-.14.122-.344.075-.934.034-.679.151-.968.678-.717.072-.143.908-.037.4-.009,1.028.1.964.093.492.056.458-.037.178-.149.095-.05.086.009.2.028.244.012.323-.068.384v.3l.068.117.512-.223.279-.075.354,0,.475.343.884-.081.67-.178.236.068.316.176.679.688.409.291.261.081.465-.138.223-.023.1.063-.112.235-.316.456-1.5,1.71-.168.271-.2.14-.738-.473-.14-.054-.493-.05-.791.032-.149.036-.512,1.042.419,1.193.679.953.261.133.456.1.878-.128.512-.259.437-.32.875-.96.642.023.822.316,3.332,2.483.4,1.023.2.892.047.351.112.453.186.4.2.322.13.322.2.1.056.14,1.4-.68.242-.768.112-.232.189-.279.586-.671,1.042-.892.391-.239.437-.176,1.771-.212.512-.329.633-.532.949-1.113.431-.613.6-.509,3.446-1.051,1.8-1.434,2.432-2.157,1.052-.09.586-.029.254-.106.27-.375.14-.754.121-1.224-.223-2.563.661-.761.261-.2.866.188.521.206.447.036.534-.565.214-.3-.112-.325.233-2.166Zm-35.77-5.353h-.4l-.5.507-.4.507h-.4l-.149.434.248.435.3.29.149.579.3.145.4-.362.3-.29.447-.579.1-.652-.05-.652ZM91.9,99.721l.177-.045.13.02.186-.084.14-.164.074-.118-.019-.314-.893.254ZM67.222,117.8l.695-.652.447-.145.695.362.5.217.546.217.447-.217.447-.434.447-.869.2-.652-.3-.652-.5-.29-.4-.145-.2-.435-.347-.362-.3.217-.248.362-.4.58-.347.29-.546.724-.248.579-.645.29-.447.217-.347.29-.2.217.149.362h.4Zm-.344-5.126.223.014.261.059.633.3.27.082.2.014.493-.072.344-.245.409-.159.27-.018.422-.122.261.131.307.222.27.149.261.045.847.023.307-.045.465-.145.14-.1.186-.181.44-1.038.242-.419.009-.188-.1-.131-.372-.059-.45.218-.112-.1L73,110.677l.223-1.8.056-.3.074-.288L73.47,108l.273-.576.363-.587.019-.286-.186-.265-.627-.5-.354-.175-.279-.05-.214.032-.074-.05.112-.259.177-.152.2-.138.391-.172.121.014.133.091.149.159.093.032-.186-.318-.208-.281-2.541-2.51-6.549,5.434.3,2.3.214.635.67.687.149.107.14.027.261-.041.093.063.093.17-.028.177-.112.2-.158.208-.056.2.084.093.754.362Z" transform="translate(-15.341 -22.541)"/>
    <path id="Bern_1_" class="cls-7" d="M112.551,55.822l1.126.144.512-.041.084-.254.065-.467-.047-.394-.1-.359-.167-.249-.158-.181-.456-.126-.977.916-.143.588.05.281ZM167.163,109.4l-.1-.353-.019-.484-.1-.348-.335-.7-.186-.527-.056-.813.065-.416.512-1.211-1.194-.428h-.307l-.8.163-.41.224-.568-.476-1.408-1.262-2.624,1.033-2.013,1.4-.651.256-.586-.02-1.157-.367-3.139-.389-.707.145-1.415.548-.316.063-.45-.127-.717-.326-.614-.426-2.032-1.336-1.154-.254-1.9-.1-1.222-.084-1.042.426-.893.505-.468.088-.372-.1-.791-.965-.707-1.1-3.968-3.182-.934-1.02-.028-.685-.549-1.738.1-.413.558-.561.2-.506.046-.64-.13-1.067.009-.522.1-.372.223-.161.521-.207.447-.3.149-.032.484.114.307-.05.288-.214.186-.323.13-.341.093-.17.316-.239.115-.182.065-.273.065-.545.112-.239.2-.284.14-.246.2-.8.168-.373.391-2.035-1.284-.268-.431-.359L134,83.263l-.214-1.422-.307-.38-.419-.724-.512-.7-.143-.615v-.544l.189-1.792V75.34l.112-.912.186-.593.484-.871-.521-2.673-.009-.9-.2-.7-.32-.776-.27-.511-1.554-3.585-.782-1.343-.056-.215-.149-1.725-2.078.51-.568-.206-1.166.439-1.656-.085-.7-.446-2.032-2.446-2.168.974-4.008.5.859,1.033.074.331.186.635.047.681,1.117,1.352,1.1.5.962,1.423.856,1.55.307.717.1.507-.093.274-.158.287-.2.187-.558.3-.372.568-.627.643-.363.059-2.767-.087-1.61-1.118-.67.1-.838.817-1.576,2.308-.865.78-1.6.745-.2.253.009.378.307.784.093.419-.047.506-.214.3-.382.237-1.107.376-.521-1.187-.047-.8-.14-.041-.5.1-1.715.494-.214-.1-.344-.292-.363-.759-.2-.326-.167-.342-.065-.278.093-.385.2-.066.679.123.382-.014.614.162.279-.03,1.064-.287.456-.271.046-.422-.121-.844.112-.424.372-.563.661-.55h.2l.288.169.363.1.419-.1.654-.456.2-.465-.2-.31-.279-.233-.2-.233-.084-.42-.14-1.132-.931.187-.316.169L107,68.18l-.493.128-.326.379-.54.493-.468.593-.484.265-.623.112-.372-.089-.14-.1.028-.187.037-.192-.037-.269-.409-1.018-.149-.274-.289-.214-.664-.247-.289-.171-.186-.24-.167-.511-.214-.32-.307-.721.158-.422,4.5-2.026-.158-.621,1.269-1.083,1.34-.544.558-.48.682-.754.512-.412.419-.258,1.964-.631.561-.391.354-.425.456-1.361-3.586,1.023-6.567-.531-.586-.247-.121-.325-.214-.435-.167-.064-.143.156-.121.384-.223.311-.335.325-.484.21-.279.2-.251.256-.465.375-.689.435-1.539.556-.921.194-1.145.069-5.06-1.029-.149.906.1.386-.112.332-.242.261-.6.448-.112.27-.028.2.009.283.112.631.121.366-.307.306L86.46,63l-1.874-.174L84.2,62.9l-.242.242-.112.5-.056.146-.093.21-.437.653-.289.575-.428.589-.636.639-.959.5-.558.409-.651.66-.623.126-1.362-.053-.7.388L74.9,70.151l-.67.4-.465.123-.251-.135-.2-.237-.549-.454-1.65-.125,1.241.675.679.912.363.78.14.463.065.363-.065.579-.242,1.121-.056.132-.065.123-.233.232-.065.084-.14.631.028.551.149,0,9.148-2.853.419-.107.037,1.21.828.219,1.74.984.468.406.233.383-.009.15-.084.1-.149.1-.093.068-.065.1.019.139.047.15.056.141.056.23.1.69.009.228v.246l-.028.155-.047.191-.093.168-.18.1-.214.089-.167.109-.391.348-.233.157-1.34.569-.223.278-.186.4-.326,1.461-.282.619-.568,1.59,2.479,1.007,4.824-.482,2.99-1.205,1.4-.6.558.152.167.209.047.114.009.073.065.518.391.568-.13.325-.623.775-.326.266-.772.389-.121.141.019.239.335.575.14.339.065.384.037.563.149.931-.065.436-.158.509-.419.89.037.225.2.111.279,0,.624-.118,3.084.89,4.8.431.289,1.974-.289.717-.568.472-.344.191-.363,0-.2-.127-.093-.118.028-.229-.112-.075-.354-.064-.437.367-.065.268.186.4.158.9L99.277,99.8l-.7,2.905-.14,1.386-.037,2.294.13,1.283.233.665.133.281.2.177,1.042.407.288.176.521.416.251.448.186.167.223.079.251-.029.2.041.171.154.13.188.158.122.233.106.261.19.093.154-.158.588-.233,2.165.112.325-.214.3-.534.565-.447-.036-.521-.206-.866-.188-.261.2-.661.761.223,2.563-.121,1.224-.14.754-.27.375-.254.106-.586.029-1.052.09-2.432,2.157.261.751.14.246.177.262.1.266.028.374-.037.613.009.563-.074.712-.186.7-.447.868-.316.417-.167.34-.037.322.14,1.18-.037.536-.214.594-.549.734-.977.59-.177.3.186.754.2.529.121.7.009.459-.679,2.137.586.47.865.884.363.189.158.243.019.3-.288.485-.121.306.065,1.757,2.088-1.238.465-.789.019-.31.028-.247.084-.128.2-.119,1.945-.661h.357l.167.193.037.611-.056.431-.009.274.065.2.363.112.354.18,2.261-.755,1.371-.953.577-.7.13-.121.14-.081.866-.189,2.618-.027,1.436.432.158.09.354.092.372-.013.521-.133,2.144-.917.875-.783-.782-.441-.354-.468,1.377-.862,2.032-.619.186-.207.642-.513.13-.185.074-.324.093-.257.186-.167.288-.153,1.247.171,3.971,1.913.707-.063,7.312-5.326.7.214.912,0,.543-.095,1.266-.491,2.2-1.564,1.657-1.064.186-.252.223-.437-.009-.28-.084-.293-.13-.286-.158-.255-.093-.192.009-.12.112-.131.2-.18,1.957-1.216,1.545-.083,5.125.981.512.444,1.442.636,1.6.171.084.054.019.162v.225l.056.28.2.149.307.095.354-.013,3.13-.645,1.436-.514,2.764-1.556.636-.548.94-.607.624-.632.307-.438.251-.5.307-1.914.363-1.368.242-.7.357-.732,1.145-1.437.652-.1-.186-1.13-.261-.719-.019-1.04.288-.335.382-.052,1,.26.478.027.437-.109.2-.326.084-.4.065-.527.009-.375ZM94.32,89.878l-.14.164-.186.084-.13-.02-.177.045-.2-.45.893-.254.019.314Z" transform="translate(-17.132 -12.971)"/>
    <path id="Basel-Stadt_1_" class="cls-1" d="M131.142,27.163l-1.414-.012h-.156l2.23,1.183-.009,1.483-.382.455-.6-.363-.465-.377L130,29.121l-.307-.129-.316.1-1.055.712-.6-.515-.168-.331-.586-.064-.568-.147-1.818-1.285-.338-.2.329-.27,1.439-.8,2.111-.8.033-.012,3.062-.922,1.359-.143-.788,2.228Z" transform="translate(-29.978 -5.819)"/>
    <path id="Basel-Landschaft_1_" class="cls-8" d="M112.173,40.006l-2.5-.107.147.254.186.154,2.507,1.256.239-1.791Zm34.284,0-.177-.339-.1-.335-.009-.2.288-.571.316-.952-.754-.5-.056-.177-.065-.363-.009-1.26-1.836-.2L143.5,34.7l-.214-.67-1.753-2.675-.279-.613-.344-.267-.475-.655-.856-.251-.363.06-.168.136-.074.361-.028.556-.047.287-.149.246-1.511,1.378-.81.117-.168-.31-.13-.505-.037-.512.037-.43-.223-.216-.14-.092-.279-.048-2.19-1.082-.195-.146-2.634.548-1.322-.177-.872-.462-.009,1.483-.382.455-.6-.363-.465-.377-.344-.409-.307-.129-.316.1-1.055.712-.6-.515-.168-.331-.586-.064-.568-.147-1.818-1.285-.338-.2-2.29,1.881.143.06,1,.767.2,0,.019.889-.261.508-.484.161-.62-.133-.347.188-.081.28.13.358.428.6.053.19.955-.116,1.154.443.484.1.158.308.1.28.037,2.354-3.809.8-.977-.023-.13-.22-.084-.2-.2-.711-.074-1.966-.271-.173-.931-.326-.7.207.006.546.3.548.2.216.292.415.1.5-.192.83-.332.435.015.019L115,38.7l.074.089.14.144.167.1.149.032.4,0,.14.048.14.172.549.963.046.259-.037.323-.884.61-3.372.131,1.619,1.313.419.678.093.706.2.192.189.105.651,0,.931-1.462.819-.183.428.078,1.027.591.977.151.568-.156.437-.279.27-.4.214-.387.177-.454.226-.195.233-.1,1.722-.14.307-.1.084-.179-.14-.289-.065-.353.046-.5.326-.135,1.362-.115.735-.759.689-1.961-.037-.211-.149-.314-.921-.454.382-1,.493-.11,1.622.17.242-.165.14-.225.009-.37.484.034,2.562,1.593.2.23.186.33-.279.372-.273.537-.177.271-.242.206-.242.151-.168.158-.121.227-.056.275-.028,1.124-.186.743-.5.626-.27.14L128.3,42l-.558.151-.056.738.065.66.093.518.335,1.122.2.238.316.128,2.113-.2,1.492.362,1.266.673.586.43.447.536.409.266.357.174,1.275.375.214-.609.94-1.614.748-.5,1.247-.357.447-.344,1.47-.669.161-.22.2-.412.335-.939.3-.1.475.037.772-.06,1.269-.353,1.135-.832.354-.461-.037-.413Z" transform="translate(-26.457 -6.76)"/>
    <path id="Appenzell_Ausserrhoden_1_" class="cls-4" d="M281.429,41l-1.563.644-.912.181-1.129-.069v.362l.093.183,1.892.949.1.811-2.562,1.6-.13-1.244.316-.33.009-.4-.056-.314-.242-.348-.279-.289-.382-.316-.233.055-.2.161-.167.183-.242.16-.158.124-.065.206-.028.151-.065.147-.009.08.084.089.177.147.074.188-.13.183-.707.344-.627.344-.177,1-.316,2.229.409,1.337-1.926-.06L265.9,46.482l-.382.371.009.651-.056,1.1-.316.843-.335.618-.5.581-.875.719-.2.522-.168,2.075.112.762.214.54.465.613.168.279.13.274.233.7.093.373.31.923L263.8,58.7l-.214-.014-.168.009-.623-.475-1.846-1.024-2.99-.393-.549-.162-.251-.151-.447-.533.7-.832-.419-1.985.037-.561.112-.355.391-.416.2-.3.261-.483-.074-.3-.2-.142h-.261l-.6.146-.782-1.55.093-.176.745-.705.456-.8.586-1.306.31-.532.2-.257.54.1,2.15-.325.431,0,.977.321,2.711-.55,2.159-.362,1.325.018.717-.225.363-.408.1-.468.2-.541.316-.546.707-.161.506-.2,3.006-1.353,1.259-1.142.326-.179.242-.021.14.094.13.06.5.124.177.092.41.358.186.128.934.372Z" transform="translate(-61.855 -9.455)"/>
    <path id="Appenzell_Innerrhoden_1_" class="cls-6" d="M268.137,47.008l-.382.371.009.651-.056,1.1-.316.843-.335.618-.5.581-.875.719-.2.522-.167,2.075.112.762.214.54.465.613.168.279.13.274.233.7.093.373.31.923.791.578.521.21.419.27.53.11.382.018,1.7-.649,1.173-.606.865-.628.831-.933,1.173-2.2,1.024-5.043-1.926-.06ZM282.1,42.174l-.912.181-1.129-.069v.362l.093.183,1.892.949.1-.654.13-.213,1.387-1.385Zm-2.618,1.383-.279-.289-.382-.316-.233.055-.2.161-.167.183-.242.16-.158.124-.065.206-.028.151-.065.147-.009.08.084.089.177.147.074.188-.13.183-.707.344-.627.344-.177,1,1.622-.635.763-.119.847.433-.13-1.244.316-.33.009-.4-.056-.314Z" transform="translate(-64.089 -9.981)"/>
    <path id="Aargau_1_" class="cls-1" d="M182.048,25l.182-.031-.1.541-1.377,2.239-1.3,1.319-1.005,1.617-.3,1.685-.028.909.316,1.232,1.325,2.833.447,1.371.819,1.087.149.33-.251.733L179.33,42.5l-.121.481.177.2.348.284,1.173.6.27.318-.009.556-.121.957-.019.288.056.288.13.339.707.769,1.781-.563-.177.851-.549.966-1.12,1.45-1.033.64-.4.165-.158.018-.186,0-.168.037.149.716,1.349,2.875-.782,1.51-.037.24-.046.548.307,3.723.447,3.1h-.047l-1.7-.071-.745-.36-.326-.3-.437-.543-.661-1.036-.214-.429-2-5.749-.456-1.01-.251-.75-.186-.864-.335-.51-.354-.336-.99-.412-1.014.105-1.005,1.18-.27.718-1.362,2.433-.977.731-.54.057-.409-.18-.279-.194-.223-.219-.112-.146-.074-.295-.1-.176v-.126l.084-.085.437-.178-.167-.139-.543-.219-1.629-.062-1.2-.4-.9-.946-4.135,1.613-1.34-2.656-.924-.386-1.284.027-.251.039-.093.114-.047.238.009.7.065.752-.028.3-.047.176-.037.085-.093.107-.233.18-1.529.551-1.368,0-3.67.749-.782-1.343-.056-.215-.149-1.725.447-.565,1.452-2.891.177-.233,2.665-2.448.437.1.521.2,3.828.581.431-.229.484-.32.819-1.921.679-1.03.437-1.008-.065-1.684-.754-.215-.586-.33-.521-.5-.279-.408-.261-1.226-.4-.25-.065-.8.056-.183-.019-.289-.1-.284-.521-.633-.931-.17-.754-.5-.056-.177-.065-.362-.009-1.26-1.836-.2-.549-.409-.214-.67-1.753-2.675-.279-.613-.344-.267-.475-.655-.856-.251-.363.06-.167.136-.074.361-.028.556-.047.287-.149.246-1.511,1.378-.81.117-.167-.31-.13-.505-.037-.512.037-.43-.223-.216-.14-.092-.279-.048-2.19-1.082-.195-.146,2.366-.493,1.129-.644.955-1.147,1.092-1.713.844.432,3.871.235.366.382.192.835.118.835.161.377h7.811l2.7-.607.583-.4.267-.386.242-.451.509-.586.49-.382,1.3-.706,1.1-.329.409-.435.3-.435.31-.2,3.239-.548,1.086,0,1.557.479.695.074.323.387.323.858.422.858.589.386,2.277.607Z" transform="translate(-33.931 -5.097)"/>
  </g>
</svg>
