<svg xmlns="http://www.w3.org/2000/svg" viewBox="1600.002 -2749.002 59.475 40">
  <defs>
    <style>
      .cls-1 {
        fill: #4d4d4d;
      }
    </style>
  </defs>
  <path id="logomark" class="cls-1" d="M19186.879,21519a2.485,2.485,0,0,1-.848-1.936,50.872,50.872,0,0,1-.4-5.691,3.089,3.089,0,0,0-.217-1.547,2.668,2.668,0,0,1-3.412-1.766v-1.666a4.959,4.959,0,0,0,.293-1.627,10.4,10.4,0,0,1,2.826-5.059c.137,1.494.82,2.68.863,3.994a3.294,3.294,0,0,1-1.52,2.7c-.523.4-1.16.727-1.254,1.482a1.434,1.434,0,0,0,2.027.809,4.951,4.951,0,0,0,2.859-2.219,5.21,5.21,0,0,0,.633-4.234c-.408-1.242-.869-2.467-1.32-3.693-1.176-3.2-.615-5.42,2.338-7.865a25.619,25.619,0,0,1,5.248-3.008,9.205,9.205,0,0,1,4.457-.453c4.557.17,9.111.4,13.668.592.75.033,1.5.006,2.25.006.59-.656,1.145-1.27,1.7-1.883.223-.318-.363-.588-.18-.891a1.652,1.652,0,0,1,.672-.834,23.652,23.652,0,0,1,14.619-5.211,10.259,10.259,0,0,1,5.883,2,2.263,2.263,0,0,1,1.127,2.3,4.589,4.589,0,0,0,.318,2.568c.26.555-.031,1.084-.066,1.621a26.054,26.054,0,0,1,2.033,3.984c-.75,1.162-1.277,2.344-2.084,3.383a2.1,2.1,0,0,1-2.555.926,3.028,3.028,0,0,0-.631-.07,22.329,22.329,0,0,1-3.387,5.277.615.615,0,0,1-.6.082c-.133-.043-.246-.082-.363.014a3.74,3.74,0,0,0-1.248,4.461c.787,2.574,1.4,5.2,2.1,7.807a4.373,4.373,0,0,0,.479,1.316c2.666,1.131,2.938,2.016,1.273,4.309h-4.15a2.846,2.846,0,0,1-1.295-1.437,39.117,39.117,0,0,0-5.932-8.584,7.906,7.906,0,0,1-1.006-2.229,20.272,20.272,0,0,0-3.344.191c-.533,2.621-1.961,5.021-1.668,7.762,2.977,1.033,3.242,2.092,1.154,4.313h-4.775a2.712,2.712,0,0,1-.689-2.016c-.293-2.879-.525-5.764-.766-8.648a8.5,8.5,0,0,0-.352-2.172c-1.8-.6-3.637-1.2-5.574-1.844a20.632,20.632,0,0,0-1.467,3.756,6.56,6.56,0,0,0,1.535,6.764c.842.215,1.99.1,2.311,1.242.344,1.234-.451,2.088-1.207,2.914h-3.871a2.493,2.493,0,0,1-.865-1.479,16.7,16.7,0,0,0-2.131-4.5,5.991,5.991,0,0,1-1.025-4.057,8.646,8.646,0,0,0-1.508-5.34,28.906,28.906,0,0,1-2.586,2.932,24.65,24.65,0,0,1-3.918,2.893,2.043,2.043,0,0,0-1.02,1.381,12.512,12.512,0,0,0-.424,2.816,1.5,1.5,0,0,0,.266,1.117c2.959.834,3.264,1.912,1.148,4.24Zm12.309-15.191a9.967,9.967,0,0,1,1.168,5.857,3.127,3.127,0,0,0,.5,2.051,27.433,27.433,0,0,1,2.883,5.979c.023.064.111.105.221.2a10.418,10.418,0,0,0,2.832-.031c.566-.783.566-.783.555-1.537a1.784,1.784,0,0,0-1.1-.367,1.264,1.264,0,0,1-.949-.434c-1.123-1.547-2.227-3.111-2.137-5.16a16.4,16.4,0,0,1,1.244-5.059c.148-.395.449-.752.344-1.281-1.785-.775-3.732-.3-5.715-.791A4.037,4.037,0,0,0,19199.188,21503.807Zm14.779,14.053a19.156,19.156,0,0,0,3.76.047c.477-.465.8-.895.652-1.512a1.506,1.506,0,0,0-1.082-.434,1.392,1.392,0,0,1-1.291-1.307,7.2,7.2,0,0,1,.365-3.387c.387-1.408.822-2.8,1.3-4.414-1.66-.146-3.131-.277-4.76-.42C19213.258,21510.328,19213.449,21514.068,19213.967,21517.859Zm-16.777-29.072a5.206,5.206,0,0,0-3.605,1.58,10.028,10.028,0,0,0-2.758,6.166c-.32,2.594-.445,5.205-.928,7.783a6.966,6.966,0,0,1-2.592,4.768,1.481,1.481,0,0,0-.662,1.443c.188,1.342.043,2.7.2,4.033a8.407,8.407,0,0,0,.564,3.354,22.49,22.49,0,0,0,3.408-.012c.584-.773.584-.773.633-1.551a1.943,1.943,0,0,0-1.09-.4c-1.105-.225-1.389-.527-1.475-1.666a12.108,12.108,0,0,1,.205-2.953,4.056,4.056,0,0,1,2.111-3.094,17.756,17.756,0,0,0,5.943-5.557q1.236-1.816,2.5-3.621a7.506,7.506,0,0,0,1.4-2.984,1.437,1.437,0,0,1,1.24-1.279,13.672,13.672,0,0,1-.117,2.707,47.154,47.154,0,0,0-3.3,4.527c1.7.488,3.275.318,4.908.57-.133-.631-.605-.92-.707-1.574,1.459.414,2.779.807,4.111,1.162a16.209,16.209,0,0,0,5.645.6c2.934-.258,3.934-2.793,2.654-4.832-.146-.234-.262-.49-.4-.73a7.142,7.142,0,0,1-1.2-3.965c-.211-.441-.77-.414-.883-.967a12.058,12.058,0,0,1,1.084-2.645,2.091,2.091,0,0,0-.986-.17c-1.66-.121-3.316-.246-4.979-.361-2.865-.2-5.73-.379-8.6-.379Q19198.354,21488.744,19197.189,21488.787Zm30.271,7.525a4.528,4.528,0,0,1-3.023,1.807,3.058,3.058,0,0,0-1.943,1.115,2.455,2.455,0,0,0,.01.688,32.053,32.053,0,0,1,.793,5.16,5.483,5.483,0,0,0,.908,2.91,49.8,49.8,0,0,1,5.07,7.895,7.735,7.735,0,0,0,1.314,2.021c.42-.021.844-.02,1.262-.018a11.783,11.783,0,0,0,2.094-.105c.352-.523.57-.973.283-1.531a1.231,1.231,0,0,0-.412-.2c-1.314-.092-1.771-.98-2.059-2.1-.781-3.072-1.578-6.141-2.414-9.2a6.876,6.876,0,0,1-.125-3.055,18.612,18.612,0,0,0,.107-4.037c-.045-1.006-.387-1.4-1.266-1.4A4.35,4.35,0,0,0,19227.461,21496.313Zm-37.979,1.686q.281-1.644.559-3.291A2.926,2.926,0,0,0,19189.482,21498Zm43.857-13.807a1.584,1.584,0,0,0-.879.756,4.282,4.282,0,0,0,.852,4.486,3.793,3.793,0,0,1,1.539,4.422,4.969,4.969,0,0,0,3.211.842c1.311-.818,1.686-2.184,2.281-3.457a8.014,8.014,0,0,0-1.422-2.406,2.318,2.318,0,0,1-.516-1.871,2.344,2.344,0,0,0-.492-1.971,3.757,3.757,0,0,1-1.664-1.143,3.582,3.582,0,0,0-.863-.1A5.838,5.838,0,0,0,19233.34,21484.191Zm2.717,2.639c.5-.283.869-.027,1.225.133.279.428-.166.777.191,1.332C19236.479,21487.951,19236.01,21487.611,19236.057,21486.83Z" transform="translate(-17582 -24228)"/>
</svg>
