<svg xmlns="http://www.w3.org/2000/svg" viewBox="0 0 368.05 274.85"><defs><style>.cls-1{fill:#7fc561;}.cls-1,.cls-2,.cls-3,.cls-4,.cls-5,.cls-6{stroke:#08586f;stroke-linecap:round;stroke-linejoin:round;}.cls-2{fill:#2d7a96;}.cls-3,.cls-5,.cls-6{fill:#557fab;}.cls-3{opacity:0.51;}.cls-4{fill:#e2c92d;}.cls-5{opacity:0.81;}</style></defs><title>Spain_map_default</title><g id="Layer_2" data-name="Layer 2"><g id="Layer_1-2" data-name="Layer 1"><g id="Group_366" data-name="Group 366"><path id="Valenica" class="cls-1" d="M264.72,119.15l-1.69-.72-.23-.19-.19-.3-.1-.27v-.24l-.19-.25L262,117l-.83-.46-1.91-.67-.63-.34-.25-.27-.2-.52,0-.33.11-.28.13-.21,0-.23-.26-.28-.34-.22-.59-.18-.31-.31-.15-.28-.08-.24-.12-.16-.55.12-.7-.13-.76.3-1,0-.38.07-.31.11-.23.13-.24.18-.22.21-.3.2-.24,0-.18-.1,0-.22v-.24l-.09-.27-.18-.21-.45-.12-1.34.09-.71-.13-1.23-.8-.41-.36-.19-.21-.26-.2-.36-.19-.49,0-.29.12L245,111l-.14.23-.12.24-.12.52,0,.54V113l-.13.22-1.37.76-.22.19-.31.16h-.23l-.44-.31-.44-.08-.32.07-.29.16-.23.26,0,.27.06.25v.26l0,.5.08.21.2.13.23.09.24,0,.2.13.24.07.24,0,.46-.16h.21l.16.12v.48l-.07.29,0,.27.06.5.06.24,0,.25V119l0,.25-.08.24v.24l0,.2.4.25,0,0,.13.44.09.22v.2l-.14.14-1.25.53-.27.25-.16.26,0,.26.09.27.16.21.41.31.18.18.33.41.16.25.1.27,0,.35-.15.22-1.07.7-.26.29-.43.69-.33.33-.58.45-.05.23.06.25,0,.28,0,.36-.18.25-.21.2-1,.47-.25.07-.5,0-.25,0-.22.08-.21,0h-.15l-.41-.11-.24-.15-.24-.1h-.26l-.15.18-.05.23v.5l0,.24,0,.25-.11.53-.19.31-.12.26-.06.55-.13.29L235,133l-.37.28-.45.46-.11.24-.05.28,0,.27.13.48,0,.21-1.87,1-1,.16h-.45l-.21,0-.19.06-.1.18-.12.57-.11.32-.24.28-.07.06-.35.23-.29.07-.62.33-.18.23-.12.25-.08.53v.24l.07.21v.23l.1.49.23.46.18.18.21.13.32.36.17.35-1.5.78-.35.08-.49,0-.27-.1-.23-.16-.15-.2,0-.26v-.54l0-.23-.11-.2-.1-.21v-.23l.06-.25.09-.24,0-.27-.11-.29-.38-.46-1.33-.64-.45-.13-.3-.05-.48.07-1-.05-.67.13-.5.19-.24,0-.63.18-.43-.29-.34.3-1,.47-.2.22-.08.2,0,.18.16.33.06.21v.27l-.07.55,0,.54-.07.57-.4,1.8-.21.55-.19.33-.3.4-.62,1.12-.08.32v.29l0,.25.11.54v.34l-.12.25-.16.21-.21.15-.23.12-.26.06h-.5l-.24-.08-.21-.13-.46-.22-.24,0-.24,0-.24.1-.48.41-.61.62-.16.21-1,1.92-.31.41-.28.26-.25.13-.1.13-.14.37,0,.13v.13l0,.1.06.12,0,.12v.09l-.06.2,0,.15v.18l0,.17,0,.32.06.13,0,0,0,0,0,.08-.08.08-.11.09-.05.15,0,.38-.17.6-.15.25v.2l0,.17.07.15.11.14.11.08.16.29.38.08.07.15.07.21.13.12.2.07,0,.12.07.14.26.09.08.14,0,.16,0,.21,0,.2.07.24.13,0,.15,0,.24,0,.15,0,.14-.09h.25l.57.2,1.22.81.29.13h.22l.28,0,3.57,1.15.17.28,0,.27-.09.26-.06.26-.06.54,0,.27v.26l0,.25L219,165l-.07.26-.09.22,0,.2-.13.33-.06.24-.23.51-.16.21-.19.18-.32.43-.12.24-.16.53-.11.26-.27.5-.1.24,0,.24-.08.24-.07.3,0,.36.15.56.2.32,2.61,3.1.46.37.36.19.74,0,.74-.17.76,0,.49-.11.41-.28.15-.06.2,0,.26.06.28.11.32.22.88,1.54.15.32,0,.26-.13.52v.28l.35,1.06,0,.16-.07.23-.1.17,0,.57-.52.41-.25.09-.1.24,0,.26.13.67.18.42.25.37.16.19.29.44.18.21.17.26v.13l-.13.13-.85.6-.47.18-.54.08-.65,0-.14,0-.42.13.45,2.21v.88l-.26.95-.1.53.06.8-.08.27-.12.25-.18.21-1,.95-.18.26-.18.38-.06.53v1.41l.08.52.12.33.23.09.52.08,1,.34.33.22.14.12.3.48.39,1.38v.42l-.11.58-.08.26-.18,1.08-.07.27-.21.49-.79,1.19-.14.38-.13.63.06.68.13.62.16.35.18.23.17.17.1.14.56.9.43.88v0h0l.29.54.19.23.37.58.3.65.17.26.75.87.21.17,1.14,1.19.22.13.49.13.22.14.2.18.15.16.12.07.2,0,.5-.1h0v0l.06-.55,1.08-2.72.26-.45.51-.54.71-.28.24-.31.05-.63.12-2.26.08-1.45.12-.54.17-.49.29-.57.38-.54.49-.4.61-.16,1,.07.47-.11.31-.4-.4-3.14.25-1.33,1,.06.1-.52.28-.28.39-.12.87,0,.1-.14v-.36l.11-.67.29-.51,1-1.11.21-.14.17-.4.41-.29,2.57-1.09.86-.62L246,189l1.22-.28h1.12l.4-.16.41-.44.17-.49,0-.48v-.5l.32-.57.38-.31.38-.13h.8l.49-.09.36-.17.37-.09.54.13-.2-.49.27-.54.29-.23.31-.17.36-.35.19-.09.52,0,.1-.12.05-.09.32-.73.38-.36.41-.22.46-.11.5,0,.18-.27v-.54l-.17-.43-.26.07-.73-.59-.21-.23-.32-.15.27-.2.12-.06-.84-.95-1.16-.65-1.29-.37-1.23-.12-.73-.19-.57-.45-1-1.06-1-.8-.4-.51-1-1.77-.7-1.39-.7-1.26-.45-1.15-.26-1.26-.15-.63.39-.31.33-.23-.33-.61-.29-.56-1.68-3.7-.52-2.3-.18-1.48-.08-1.74.2-1.25.29-.62.84-1.24.18-.43.14-.59.33-.61.37-.52.64-.71.29-.44.18-.59.06-.84.14-.37,2.78-4.64,1.69-1.89.69-1.06,1.17-2.49.69-1,1.37-.86.74-.79,1.63-3.26,1.6-1.35.92-1.3.36-.38.72-.6.31-.37,1.88-3.65.7-.71.18-.91.36-.59.46-.51.48-.68.43-1.07.17-.42Zm-52.78,14.43.65.38.11.17.07.24.1.44.76,2.23.24.2.26.08h.28l1.71.29.73.28.43,0,.22-.09,0,0,.26-.06.48,0,.5-.1.18-.1.48-.09.64-.17,1.28-.64.2-.17.14-.21.09-.25,0-.24-.09-.24-.35-.4-.88-.74-.68-.43-1.72-.21-.53-.25-.2-.21-.09-.21v-.18l0-.16-.12-.11-.21-.12-.18-.18-.18-.22-.14-.23-.23-.49-.17-.48-.09-.17-.17-.06-.36.28-.16.28-.06.3.1.54,0,.26-.14.25-.51.22-.55.12-.84,0-1.43-.34-.1.67.12.17Z"/><path id="La_Rioja" data-name="La Rioja" class="cls-2" d="M205.23,60.76l-.06-.38v-.17l0-.1,0-.09v-.14l-.08-.23-.16-.27,0-.77-.8-.57-.55-.17-1.3-.74-.65-.6-.25-.17-.18,0-.42.07-.16-.05-.12-.24v-.28l0-.27-.06-.2-1-.74-2-2.47H196l-.62-.22-.38-.57.13-.09.13-.23.13-.18-.57-.52-.77-.09-1.8.14-.52-.06-.39-.13-.33-.26-.32-.45-.23-.23-.79-.54-.28-.11-1.75.25-1.11-.42-.58-.09-.57-.08-.94-.29-.8-.47-.27-.64-.24.09-.2.15-.16.22-.13.29.06.08,0,0,0,0,.06.1-.53-.07-.43.06-.37.19-.33.33,0-.56-.27-.2-.3,0-.14.11-.18.22-.38-.18-1-.75-.25-.14-.21,0-.08-.57v-.53l.06-.25v-.26l-.09-.28-.28-.3-.93-.66-.36-.11-.39.15-.21.21-.1.27-.18.58-.37,0-.34.17-.19.06-.22-.13-.16-.22v-.21l.32-.36.06-.19-.1-.33-.37.24-.16-.28,0-.48V43l-1.87.65-.72-.14-.41-.18-1.76-.21-1.15.13-.41.19-.1.24.3.44.09.26,0,.26-.17.29-.18.21-.16.23-.11.23-.81.91,0,.28.12.14.22,0,.21-.1.24,0h.21L168,47l.06.22,0,.3-.08.33-.18.45-.07.3.07.25.4.28.15.2.07.24.14.22.08.24v.22l-.23.75,0,.81,0,.3.06.27v.28l-.43.76-.17.14-.52.11-.27.13,0,.2.11.21.16.19,0,.27v.63l.05.29.07.29.09.26,0,.27,0,.27,0,.35-.06.41-.31,1.14-.18.3-.33.29v.19l.9,1.37.07.28.18.48.19.16.42.29.29.44.12.24.09.25.27.42.42.21.35,0,.21,0h.4l.4,0,.24-.06h.24l.22.08.15.21.12.25.07.25.11.22.2,1.22,1.06.31.83-.39.73-.46.3-.33.14-.32v-.28l-.06-.26,0-.26.07-.26.14-.28.1-.3.32-.41.32-.2.72-.07.27.08.22.13.08.22,0,.25V63l-.09.51-.14.22-.35.35-.1.22-.07.26-.1.26-.08.27,0,.26.13.23.39.2h.41l.33.07.29.12.51.4.21,0h.1l.13,0,1-.06.77.1.48,0,0-.06.05-.11.07-.19.3-.46.29-.57.11-.28.14-.22.18-.16.15-.11.14-.13.11-.19.05-.5,0-.56,0-.26.09-.19.16,0,.56.1.24-.12.61-.42.34-.32.73-.24,1.7-.13,1.38.16.26.13.15.15.07.23.06.26,0,.27.09.27.16.25.26.21h.29l1.5-.53.48-.05.5,0,.42.11.27.18.14.22v.26l-.12.21-.2.18-.21.12-.16.18,0,.24,0,.27.09.27.15.23.64.54.27.46.07.19v.14l-.05,0-.11.11-.13.16,0,.23,0,.25.15.53L194,68l.27.16,1.48.39.45,0,.68.28.27.21.28.26.27.08.65-.07.3-.08.27-.12.48-.3.22-.17,1-.58.26-.85.1-.14-.21-.69-1-.87-.18-.37-.11-.36v-.31l0-.27,0-.27.1-.25,1.07-1.28.39-.38.17-.21.1-.24.08-.23.15-.17.24,0,.28,0,.32.17.26.07.23,0,.54-.23h.26l.27.09.58.29h.27l.24-.08.16-.17.07-.22Z"/><path id="Navarre" class="cls-1" d="M219.15,50.59l-.36.18-.22.24-.07.45.18.33.38,0,.29-.3.2-.51v-.4l-.16-.15Zm2.36-.85-.24-.15,0-.42-.09-.27-.2,0-.18,0-.31.33-.11.24-.13.36,0,.36.29.24.4.12.58.12.31,0,.22-.15v-.33l-.2-.18Zm8.77-17.86-.72-.25-2.08.38-2.15-.18-1-.34-.94-.71L223,30.4l-.45-.13-.93-.12-.2-.17L221,29.7l-.23-.09-1,.09L218.9,29l-.93-.51-1.56-.28-.51-.31-.46-.53-.12-.5.22-.48.56-.49-.61-.16-.6.23-.46.53-.19.74-.07,1-.23.5-.46.15-.74-.06-.66-.18-.6-.34-.49-.56-.34-.8.22-.31,1.11-1.2.34-.46.41-1.17.29-1.47-.1-1.35-.77-.8h-.32l-.3.11-.3.05-1.12-.59-.84-.25-.53,0-.4.25-.21.63-.15.32-.29.17-.34,0-.29,0-.33-.15-.13-.17-.2-.63,0-.32.07-.23v-.17l-.27-.19-.51-.25-.25,0-.55.23-.58.08-.32.16-.29,0-.06-.14h0l-.63.19-.23.19-.25.26-.38.75-.42.68-.34.34-.37.22-.27,0-.18-.1-.23-.08-.15.11-.05.19V22l-.1.08h-.15l-.35-.15-.16-.1-.07.18-.21.79,0,.28,0,.57,0,.26.1.24,0,.35,0,.41-.38.77-.3.32-.35.28-.36.18-1.36,1-.38.66-.21.46-.11.33,0,.3.06.27v.29l-.08.36-.18.23-.21.16-.75.15-.26.15-.51.71-.25.24-.27.1-.29,0h-.29l-.53.07L192,31.9l-.48-.21-.36.07-.3.3-.17.23-.11.24,0,.21-.42.84.37,1.53,0,.33-.07.38-.57.94-.3.83-.06.55v.6l-.07.32-.15.23-.73.25-.22.32v.29l.23,1.4.14.1.29.08L189,42v.33l-.15.19L188,43l-.27.13-.26,0H187l-.18-.14-.23-.4-.12-.12-.15-.09-.23,0h-.25l-.25.1-.53.44-.35.39-.52.44-.23.14-.38.36,0,.27,0,.24.14.2.18.15.22,0,.41.24.21.08.22-.11.55-.72.22,0,.2.08.14.2.07.25.11.69L186,47.81l-.09.55.58.09,1.11.42,1.75-.25.28.11.79.54.23.23L191,50l.33.26.39.13.52.06,1.8-.14.77.09.57.52-.13.18-.12.23-.13.09.38.57.63.22h1.5l2,2.47,1,.74.06.2,0,.27v.28l.13.24.16.05.42-.07.18,0,.25.17.65.6,1.3.74.55.17.8.57,0,.77.16.27.08.23V60l0,.09,0,.1v.17l.06.38.11.27-.07.22-.16.17-.24.08h-.27l-.58-.29-.27-.09h-.26l-.54.23-.23,0-.26-.07-.32-.17-.28,0-.24,0-.15.17-.08.23-.1.24-.16.21-.39.38-1.07,1.28-.1.25,0,.27,0,.27,0,.32.11.36.18.37,1,.87.3,0,.07,0,.06,0,0,0,.29.15.24,0,1,.08.24.09.22.13.2.2.34.44.2.17.23.15.52.2.26.06.26,0,.5-.23.25-.07.48.17.47.23.21.15.19.18.29.43.19.18.42.31.48.19.25,0h.26l.51-.09.41-.24.14-.06.19,0,.2,0,.78.25.26,0,.49.12.19.08.12-.07.15-.18.15-.35.25-.26.29-.4.07-.34.17-.27.36-.84.49-.84.55-.75.17-.34.1-.62-.11-.31-.2-.16h-.25l-.24-.06-.22-.13-.16-.22-.14-.24L214,63.1l-.11-.24-.13-.22-.37-.37-.14-.22,0-.25V61.3l0-.29v-.72l0-.31-.1-.26-.13-.23-.15-.22-.12-.27,0-.26,0-.31.1-.35.21-.51.11-.35.13-.58,0-.27.11-.37.18-.48.54-.83.8-1,.09-.3-.06-.22-.15-.2-.18-.12-.1-.23,0-.28.06-.39.16-.64.57-1,.71-.69.4-.63.18-.39,0-.26-.06-.14-.12-.23-.07-.2,0-.24.06-.28.11-.29.18-.35.18-.25.2-.17h.31l.49.15.23,0,.21-.12.18-.15.06-.31.2-.32.29-.34.66-.42.15-.21,0-.13-.42-.21-.09-.09.18-.06.27-.13,0-.18v-.21l.07-.24.18-.2,1.61-.21.26.06h.54l.3-.17.11-.22.14-.49,0-.26,0-.25.07-.26.19-.22,1.28-.35.34-.17.34-.24.72-.69.55-.26.21-.46.17-.14.34-.18.28-.23.27-.62.16-1.09,0-.58.06-.3.11-.33.73-1,.1-.22,0-.25.09-.27.18-.3.94-.51h.71Z"/><path id="Murcia" class="cls-3" d="M230.52,216.91l.12,1,.55.63-.37-1.27,0-.79.24-.76-.13-.2-.16-.35-.09-.14,0-.08v-.09l0-.06-.14,0,.11,1Zm1.16,2.39-.5-.29-.23.41-.54-.07-.62-.3-.87-.57-.27-.33-.88-1.6-.09-.64.22-.46.6-.18.35-.3.66-1.8.73.91.13-.34-.12-1.36h0l-.5.1-.2,0-.12-.07-.15-.16-.2-.18-.22-.14-.49-.13-.22-.13L227,210.44l-.21-.17-.75-.87-.17-.26-.3-.65-.37-.58-.19-.23-.29-.54h0v0l-.43-.88-.56-.9-.1-.14-.17-.17-.18-.23-.16-.35-.13-.62-.06-.68.13-.63.14-.37.79-1.19.21-.49.07-.27.18-1.08.08-.26.11-.58v-.42l-.39-1.37L224,196l-.14-.12-.33-.22-1-.34-.52-.08-.23-.09-.12-.33-.08-.52v-1.41l.06-.53.18-.38.18-.26,1-.95.18-.21.12-.25.08-.27-.06-.8.1-.53.26-.95v-.88l-.45-2.21-1.5-1.14-.74-.69-.11-.22-.07-.23,0-.25,0-.24-.15-.19-.23-.11-1-.32-.26-.05-1.59.41-.26.14L217,182l-.68.7-1.51.86h-.3l-.2-.13-.13-.2L214,183l-.21,0-.38.2-.46.41-.83,1-.45,1-.08.53v.26l0,.52-.12.24-.16.23-.32.22-.24.24-.33.59-.07.18-.05.2,0,.2,0,.2,0,.14.1.2.14.46.11.56.07,1.08v.57l.13.83v.27l0,.27-.05.26-.12.24-.25.28-2,1.61-1.6.51-.26,0-.26-.05-.23-.08-.36-.17-.15-.11-.12-.14-.1-.16-.06-.17,0-.18,0-.19.07-.18v-.17l0-.17-.09-.14-.12-.12-.14-.09-.18,0-.44.08-.16-.08-.31-.2-.18,0h-.2l-.25.08-.2.1-.18.19-.34.08h-.12l0,.06v.18l-.08.2-1.41.85-1,.78-.66.37-.43.15-.86.15-.72.25h-.21l-.16-.09-.46-.44-.2-.13-.23,0-.3.05-.44.27-.7.84-1.14,1.05-.32.17-.53.11-.31.11-.34.2-.78.75-.28.45-.76,1.6-.82,1.13-1,1.16-.15.24-.38,1.23.92.69.22.2v0l0,0,.35.69.55.85.79.93.61.37,1,.66,1.25-.08.35.12,1,.49,2.54.35.19.17v.2l-.3.41-.12.24,0,.25v.61l0,.21-.2.52,0,.21.08,1.21.1.35,0,.23-.1.45-.12.35,0,.25v.55l0,.26,0,.57.1.35.11.2.24.3,4,6.26.32.32.2.13.21.09.15,0,.06-.13,0-.17.12-.12.13,0,1.38.32.24.1,2.45,1.95.62-.38,1.37-.6.4-.08.25-.1.53-.46.24-.15.18,0,.15.12.16.05.23-.18,0-.22.29-1.12.07-.17.09-.16.2-.2.21-.16.14-.07.54-.12.45-.29,1.2-1.18.43-.29.8-.41.91.12.76,0,.11-.32.4-.41.37.11.79.32.57.09.14.3.17.38.8.2.85.2-.3-.59-.08-.33.14-.33.3-.26.42-.15.48-.06,1.71,0,.89.17,1.07.52.23.17.66-.45.38-.18.35-.07h1l.77-.41.44-.1.74-.28.26-.16.24.17h.24l.24-.14.22-.24.39-.31.11-.4Z"/><path id="Madrid" class="cls-4" d="M168.18,133.88l-.17-.2-.12-.23-.09-.24-.06-.28-.1-.24,0-.32.08-.14.1,0,.21.06-.27-1.41v-.73l0-.33-.09-.41-.24-.63-.23-.45-.31-.22-.26,0-.7.52-.19.22-.16.22-.19.18h-.2l-.2-.25-.07-.5v-.38l.07-.33.09-.31,0-.32.07-.39.16-.25.38-.39.13-.2.05-.19,0-.17.11-.33.08-.15,0-.17v-.17l0-.33,0-.12.07-.15,0-.28-.09-.39-.41-.69-.33-.27-.3-.17-.24-.05-.19-.15-.1-.25,0-1-.06-.7v-.14l0-.16-.08-.21-.56-.55-.21-.17-.19-.18-.22-.11-.24,0-.17.07-.18.1-.16.12-.16,0h-.19l-.09-.08-.05-.12,0-.16.07-.09.05-.11,0-.16-.06-.28-.08-.24-.37-.35-.24-.15-.15-.24-.12-.3.05-1,.16-.76-.18-.07-.14.09-.19.09-.21,0-.28-.19-.3-.33-.38-.68-.23-.29h-.19l-.09.18-.14.14-.38,0-.42.1-.21-.1-.18-.17-.17-.21-.1-.21.1-.31.33-.46.09-.22V112l-.1-.25,0-.48-.06-.36-.18-.39-.19-.23-.78-.24-.19-.12-.07-.12v-.13l.1-.12.09-.15.17-.33.14-.36.05-.21.16-1,.07-.17.1-.13.13-.1.12-.06.15-.14.11-.19v-.37l-.13-.3,0-.28.09-.25.09-.34.13-.26.1-.27.23-.82.12-.26.09-.27.21-.46.08-.33V102l-.4-1.11-.32-1.22-.25-.11-.2-.06-.63-.32-.2-.15-.25-.26-.29-.48-1-1-.11-.63-1.25.28-.85.53-.27.27-.21.26-.17.26-.48.62-.52.55-1.16.81-.41.36-.26.31-.26.53-.16.27-.13.27-.37.58-.24.19-.26.15-2.32.8-.27.22-.25.29-.23.36-.4.5-.35.64-.09.25-.05.25.09.49v.27l-.08.28-.17.33-.12.28,0,.27,0,.53-.06.26-.19.52-.12.25-.1.28-.16.15-.15.06-.62.13h-.25l-.23-.1-.3-.06h-.33l-.53.27-.28.26-1,1.55-.1.22-.77,1.13-.19.7v.24l-.07.57v.53l-.07.25-.28.23-.29.11-.28.07-.47.2-.51.09-.25-.06-.23-.1-.18-.15-.19-.42-.15-.15-.19,0-.12.18v.33l.1.25.06.26v.49l-.11.4-.05.13-.07.12-.1.11-.2.14-.2.2-.19.34V119l0,.3v.52l0,.2v.17l0,.19v.43l.06.23,0,.24,0,.24-.11.29-.22.77.14.5,0,.19-.27.14-.76.06-.19.1h-.12l-.16,0-.15-.06-.22-.06-.18,0-.16,0-.16.09-.15.12-.23.26-.11.2-.09.59v.2l0,.26-.1.33-.26.52-.2.32-.32.22-.26.09-.46,0-.13-.05-.16-.14-.3-.45-.19-.16-.19,0-.15.15v.32l0,.27.14.46,0,.28,0,.26-.14.2-.34.72-.23,1.2-.37.61.61.4.44.09.33,0,.25-.14.13-.21.26-.24.34-.2.82-.35.38-.26.25-.29.14-.28.82-.86.18-.24.13-.26.34-.51.14-.05.15,0,.17.14.11.21,0,.24-.07.52v.26l.07.24.21.47.18.21.24.2.41.17.38.43.11,0,.14-.07.38-.32.18-.2.22-.34.2-.38.15-.19.29-.21.68-.12.67-.42.25,0,.21.15.17.21.76.76.43.14.51.08.36-.12.25-.16.24-.2.24,0,.58.24.24.16.2.2.17.24.13.24.24.21.34.16,1.44.46.86.42,1.28.33.14.1.15.15.15.2.26.21.25,0,.46-.12.21.07.19.15.41.6.19.13.15.07.32.09.68-.11.37.06.43.13.5,0,1.32.66.28.24.1.17,0,.17,0,.35,0,.18-.24.72-.07.15-.22.34-.06.13-.13.11-.32.21-.2,0-.35.21-1.25,1.34-.43.37-.5.15-.15.11-.44.51-.14.12-.32,0L147,140l-.32.17-.25.22.12.25.33.3.85.54.43.07.32-.09.2-.24.42-.34.23-.1.38-.37.25-.3.18-.16.21-.1.29-.1.49-.05.31-.14.47-.34.63-.18.22-.12.07-.18,0-.5.13-.15.42-.16.5-.13,0,0,.19-.18.17-.12.22-.11,1.07-.27.24-.11.12-.19.19-.38.36-.32,2.58.11.93-.42.51.4.3.05.34-.11,1.11-.19,1.63-.87,1.09-.37.48.28.1.15.05.35,1.35-.07.53-.16.41-.34.27-.29.15-.27,0-.25Z"/><path id="Galicia" class="cls-5" d="M69.28,54.31l.06-.27-.13-.33-.4-.45-.91-.59-1.35-1.14.2-.09.09-.1.21-.3.12-.24.09-.32.06-.63.05-.29L67,48.79l-1.93-.54L65,48.19l-.33-.28-.28-.13H64l-.53.18-.25.16-.12.12,0,.08-.11.1-.29,0-1.16-.26-1.21-.05.24-.68v-.68l.06-.29.47-1.06,0-.42L61,44l.12-.31.21-.22.24-.14.24-.22v-.23l-.08-.24-.18-.21-.19-.26-.16-.32-.1-.48.06-.33.13-.3.31-.43.12-.1.77-.34.61-.62.27-.08.22.06.24,0,.27-.13.28-.27L65,38l.87-1,.16-.36.1-.42v-.3l-.22-.9,0-.46.46-.54.12-.28.05-.33.24-.34-.14-1.38-.09-.38L66.39,31l-.62-.64-.23-.1-.51,0-.25,0-.21-.1-.22-.2-.07-.08L63.7,29l-.17,0-.06,0v.69l0,.12,0,.06,0,.07-.12.08-.12.05L62.88,30l-.2-.36-.14-.42.06-.4.18-.24.22-.07.21-.15.14-.27.08-.36.08-.25.09-.22.1-.17.16-.11.18-.05.27,0,.25,0,1-.41.22-.13,1-.92.05-.32-.07-.41L66.34,24l-.26-.37-.24-.22-.2,0-.17.15-.12.22-.05.23-.13.19-.2.15-.25.1-.5.31-.45.2L63.54,25l-.21-.16-.17-.21L63,24.32,62.94,24l0-.36.18-.53,0-.24v-.2L63,22.6l-.22-.06-.43-.22-.3-.4h-.18l-.21-.05-.59-.48-.2-.21-.16-.27-.16-.38-.23-1.58-.19-.2-.22-.15-.23-.06-.36-.38-.19-.28L59,17.49l-.09-.42,0-.33v-.3l0-.28-.11-.22-.18-.13-.46,0-.36-.18-.08-.17,0-.2.08-.77.05-.24.16-.21.33-.09h.29l.27.1H59l.19,0,.21-.14.27-.26.37-.59.83-.75,0-.06L61,12l-.18-.48.14-.52.29-.44.19-.41,0-.73L61,9.22l-.47-.08-.48-.26-.44.28L58,9.22l-1-.16-.55-.19H56L55.71,9l-.2.2-.22.1-.36-.17V8.88l.16-.11.08-.1.06-.12.09-.15L54,7.77l-1.7-3-1.09-.41L49,3l-.32-.11-1.06-.13L47.26,3,47,3.25l-.24.2-.33-.13-.22.53-.34.46-.24.1.08-.59-.66-1.3L45,2l-.46.23-.18,0-.21.08,0,.17V2.7l0,.1-.24.11-.2.06-.13-.16V2.27l.62-.77.12-.22L44.15.89,44,.61,43.77.5l-.09.13-.19.56L43,1.72l-.57.4-1.07.28-.54.32-.49.41L40,3.55l.06.14.07.27.06.12-.67-.24h-.33l-.31.22.49.81-.25.28-1.35-.08V4.84l.13,0L38,4.74l.17-.18.2.18.09,0,.28-.22-.16-.28V4l.13-.33.19-.32.15.06.27.08.16.09V3.31L39,2.82l-.2-.66-.32-.54-.75-.12-.53.73-.67.62-.76.46-.8.23h-.9l-.4.1L33.54,4l-.1.43-.13.4.06.39.52.42-.12.08-.13.12-.12.07v.23l.08,0,.28,0-.31.15-.3,0L33.06,6,33,5.6,29,8.62,28.27,9l-.64-.1L27.45,9,27,8.92h-.1v.4L27,9.7l.22.3.22.2-.35.5-.31-.13-.14.56-.1.78-.21.57,1.19-.05L28,12.2l.32-.48.26.16.1.1-.19.09-.07.06-.1.13L30,12l.62-.28.13,0,0,.28-.12.24-.2.17-.18.07-2.72.35-.5.4.44.18.65.7.48.16.91-.07.49.06.53.26-.5.35-.29.26-.13.34V16l.2,1.14v.57l-.21.59-.19-.56-.28-.36-.62-.62-.17-.4-.1-.42-.17-.33-.39-.14-.78-.5-.54-.09-.25.48.07.88-.1.34-.34.42-.6-.53-.24-.36-.1-.49L23.36,16l-.16.12-.07.17-.12.15-.55.14-.27.2L22,17.1l-.09.33-.23.23-1.41.68-.92-.41-1,.31-.94.55-.75.29-.5-.08-1-.35-.49-.08-.46-.2-.85-.87-.35-.2-.3.08-.21.18-.2.26-.85.23-1.14.78-1.09.49-.27,0-.19.11.22.23.33.18h.12l.4.83.32.22.57,0-.47.36-.71.29-.72,0-.49-.44H8l-.14.55-.28.51-.34.21-.34.3-.34.15-.48.09H5.66l-1-.45-.87.47L2.51,24.18l.25.64.38,0L4,24.43l0,.32.44,0,.6-.14.46-.22v.27L5,24.76l-.2.06-.22.11-.24.2-.11.18-.07.18L4,25.7,3.6,26l-.35.12L2.89,26,2.5,25.7l-.12.42-.31.23-.32.31-.14.67-.18.33H1.06l-.23.2.2.87.4.3.17.24-.1.32-.1.21-.08.29-.06.29,0,.23L.68,32.17l-.18.35v.23L.74,33l.27.86.13.08.18-.33.27-.74.2-.31L2,32.3l.31-.2.27,0,.12.49.13,0,.25-.07.16-.21L3.09,32v-.21l.33.15.42.68.25.15.46,0,.19.14,0,.23,0,.33-.07.22L4.41,34l-.06.14,0,.22.14.49,0,.29.51.21.37.25.22.42-.16.37-.19.26-.25.14H4.73l.26.65.14.59.18.47.36.31.51.1.34-.18.62-.67L7,37.45l.56-.12,1.37.2.71-.1.62-.27.42-.52.11-.84.56.31.07.59-.17.58-.19.26-.65.15-.41.38-.69,1-.78.45-.07.08-.32.12L8,39.94l-.13.26-.31.44-.17.73-.09.55,0,.44L7,42.91l-.39.94-.14.88.41.39.6.27.13.61.06.67.4.45.39-.46.21-.2.23-.09.22-.83.08-.19,1-.28.32-.25-.38-.47.89-.7.38-.19-.15.38.39.3.32-.21.59-.84-.27-.31.06-.46.41-.76.36.3.28.57.33.46.51.2.48-.17L15,42.5l.27-.57.19-.59h.17l-.21.82-1,2.25-.35.46-.35.11-.33.29-.25.44-.1.54,0,.63.33,1.27-.33.28v.4l.07.43-.11.38-.28.11-.39-.07L12,49.52l-.24-.16.35-.23v-.35l-.22-.31-.33-.11-.4.1-.56.23-.49.31-.2.36.19.14.93.16.35.2.21.39.12.69.22.41.64.4.88.11.85-.08.59-.16.38-.22.67-.54.59-.37.06-.06.09,0,.24,0,.27.11.22,0,.25-.12-.2.53-.39.38-.89.59-.46.42-1,1.2-.2.47-.12.09-1-.23-.39.08-.09.09.06.16.05.3,0,1.18-.16.28-.38-.57h-.17v.5l-.27.8-.1.46.52-.17,1.41.1.29-.07.3-.32L15.92,56l.55-.13.67-.29.38-.65.29-.69.41-.39.22-.07.1,0,0,.24v1.12l-.09.3-.18.19-.55.38-.48.2L16.4,57l-.12.08-.35.15-1.42,1.1L14,59l-.12.1-.28.15-.14.34-.07.34-.07.15-.7.37-.13.13.11.23.51.25.13.29-.2.33-.5.14-1.07,0-.29.25-.08.63.53,7.05-.07.5.45.16.43-.38.43-.52.45-.26.55-.16.49-.42.41-.56.3-.59.3-.22L16,67l.69-.21.55-.37.2-.36.29-.78.23-.36.46-.35.47-.1,1,0,.5-.21.93-.64.51-.19L26,62.74l.45-.24.69-.63.24-.15.2,0,.46,0,.49-.2.81-.58.24.35.24.55-.08,1.56.09.59.34.27.41-.12.48-.22.56-.06.52.22.41.4.22.54-.06.63-.29.46L32,66.4l-.78.51-.79.78-1,1.55-.26.65,0,.67.3.65,1,.38.2.29,0,.48-.1.87v.07l2.32.14,1.16-.33h0l.88-.92.26-.44.33-.35.38-.18.43.07h.5l.25-.47.13-.6.13-.42.53-.21.07,1,.18,1h.86l.19-.21.09-.24.13-.2.28-.09.73,0L42,70.48l.76-.39.42.11.75.54.47.23,1.45.06-.42,1.14,0,.34.43.25.48,0,.57-.09.55-.2.41-.29L48,72l0-.25.05-.22.2-.18h.21l.41.29.26,0,.37.13.35.48.26.63.11.57.35-.31.65-.75.36-.25.41-.07,1,0,.49-.08,1.92-.65.88-.56.25-.37L56.9,70l.06-.57-.17-1.17.06-.51.2-.21.41-.32.47-.27.39-.06.87.55.82.71.85.39,1-.42.63-.46.24.12h0l0-.39L62.56,67l0-.21.09-.27.48-1.14,0-.17,0-.11-.28-.43-.19-.12h-.55l-.21,0-.19-.15-.17-.19,0-.24.09-.28.36-.36.65-1,.21-.2L63,62l.22-.15.19-.22.29-1,.11-.25.21-.32.93-.95.43-.34.43-.27.6-.14h.38l.51.16.16,0,.08-.47.08-.28.44-.53.36-.33.36-.69.32-.4.1-.23.06-.25V55.1l0-.52Z"/><path id="Extremadura" class="cls-3" d="M125,166.09l-.77-.94-.31-.25-.14-.24,0-.14-.47-.87-.51-1.27-.07-.3v-.36l.2-.28.24-.12.28-.06.27-.18.25-.32.4-1.19.4-.76.09-.61-.4-1.12-.29.4-1.33.71-.38.47-.29.14-1,.29-.61.3-.17.12-.2.06-.14,0-.67.4-1.73-.87-.31-.27-.28-.23-.13-.12-.35-.39-.28-.41-.8-.93-.39-.66-.19-.14-.48-.12-.4-.25-.21-.25-.39-.32-.57-.62-1-1.28-.2-.17-.43-.29-.2-.18-.17-.19-.08-.21.05-.21.29-.41.14-.23.16-.22.12-.24.28-.43.1-.23.06-.24.09-.23,0-.74.12-.49.1-.24,0-.26,0-.28-.19-.29-.36-.44-.08-.21.17-.53v-.33l-.12-.46-.12-.28-.2-.13h-.18l-.54.08-.18.06-.55.47-.24.28-.3.49-.14.12-.17.06-.37,0-.92-.19-.14-.17-.1-.3.07-.76.07-.35,0-.4.07-.42.13-.29.29-.46.08-.23v-.24l-.12-.22-.15-.21-.18-.2-.19-.17-.22-.11-.24-.05-.74.06-.51.11-.25.1-.12-.44v-.94L106,138l.14-1.89-.06-.33,0-.36.14-.88.12-.29.08-.13.8-.37-.47-.76-.1-.27-.13-.22-.2-.47-.09-1.58,0-.27.07-.26.3-.73V129l-.13-.15-.5,0-1.36.4-.92.78-.18.22-.37.37-.22.1-.22.07-.17,0-1.05,0-1-.36-.7-.41-.63-.87-.85-.77-.76-.55-1.1-.44-.93.34-.57-.06-.17-.15-.05-.2L95,127l.06-.25,0-.29-.1-.29-.26-.36-.25,0-.25.07-.56.3-.9.26-.2.11-.18.15-.11.22-.07.25-.1.26-.12.24-.19.2-.24.12-.35,0-.7-.27-1-.5-.37-.29-.22-.27-.36-.3-.59-.35-.94-.38-.35-.19-.08-.14.18-.13.08-.14.06-.28.05-.13.11-.14.07-.14v-.14l.16-.27v-.14l-.15-.16-.57-.21-.33-.17-.22-.2,0-.22-.07-.23-.52-.13-.25-.13-.43-.47-.28-.23-.91-.59-.47-.1-.34,0-.26.15-.92.68-.33.15-.35.1-.47.09-.28.17-.24.19-.19.19-.13.22-.09.25-.14.25-.26.18-.8.17-.29.11-.23.14-.56.62-1,.37L76,125l-.55.22-.21.12-.84.66-.17.21-.13.22v.24l.14.49v.25l-.08.24-.17.2-.24.18-.38.16-1.88.35-.36.14-.24.16-.3.13-.27,0-.51-.29-.23,0-.87.47-.51-.06L68,129l-.25,0-.28.13h-.27l-.26-.07-.28-.14-.26-.19-.48-.56-.33-.26,0,.28-.08.21-.5.35-.52,0-.53,0-.18,0-.34.06-1.16.76-.48.22-.24.33-.26.82-.23.41.22.52.19,1.2.32.48.33.1.71.1.29.11.29.26.37.58.6.75,1.08,2-.46.78-.13.37,0,.38-.11.31-.16.87-.08.14-.26.2-.08.16v.2l.1.35v.18l0,.31,0,.59-.09.34-.68,1-.26.15-.62.26-.21.18-.19.48,0,.38.12.32,0,.29-.1.33-.32.57-.12.33v.33l.08.24,0,.26-.31.75-.39.17-4,.5-.84,0-.59-.36-.46.15-1.07,0-.5.1-.44.19-.37.1L47.22,149l0,.09.21.49.87,2.43.48.44.8,1.08.45.43.91.48.23.3.26.76.41.34.57.28,1.13.3.2.35v.74l-.14.8-.21.5-.14.49v.77l.13.74.2.41.51.4,1.34,1.65-.36.64,0,.73.21.7.38.54.67.38.75.2.63.3.33.66-.06.35-.3.68,0,.29.28.28.4.21.41.07.33-.13.64-.39.71-.08.7.2.62.43.43.42.38.62.17.68-.19.59.31.24,0,.31-.15.35-.26.35-.9,1.76-.6.84-.58.49.37.68-.14.54,0,.49-.22.14-.33.27-.33.34-.44.21-1.24.27-.26.22-.15.33-.37.43-.45.38-.41.16-.39.32-1.2,1,0,.13-.23.46-.09.25-.19,1.18-.05.79v.35l0,.27.13.22.18.1.16.12.08.26-.15.48L53.67,188l-.49,1.74-.26.4.31.45,0,.4-.26.38-.39.41.37.19.76.56,2.85,3.68.11.2.17.46.12.21.19.19.46.34.14.15,1.09,2.78.26.25.37.34h.41l.68-.14.66-.3.33-.46.15,0h.08l.7-.21.75-.06.37.27h0L64,200l3.66,1.25.14.26v.24l-.08.24-.14.2-.11.22-.19.46,0,.24.08.2.23.15.36.09.33.19.74.23,1.27,0,.65-.1.88.08.38.1.35.14.38.32.51.71.08.23.06.25,0,.26.07.22.16.16,1.29.09.67.22.39-.05.1-.1.06-.19.14-.16.4-.35.14-.2.1-.2.19-.13.22-.06h.28l.29.11,1.1.77.2.34.1.27.05.23.07.19v0l.68.18,3.52,1.46.46.44.36-.37.84-.64.67-.35,2-.41.52,0,1.16-.24.35-.14.29-.18.3-.35.1-.26.06-.2,0-.17.09-.19.46-.6.07-.24v-.24l-.08-.23-.13-.21-.11-.21v-.24l.08-.24.12-.25.16-.24.24-.22.7-.43.2-.16.14-.16.23-.43.18-.23.25-.2.8-.3,1.8-.24.35.07.37.29.43.48.12.21.05.2-.12.18-.43.25-.24.1-.2.13-.15.16v.21l0,.24.15.72.17.18.3.05.47-.09.6-.44.59-.56.18-.22.52-.35,1.14.06,1.15-.93.13-.18v-.44l.09-.49.08-.24.19-.24.07-.48v-.25l0-.26,0-.25-.06-.25,0-.25,0-.25,0-.14-.26-.48-.07-.18-.09-.17-.06-.16-.11-.4-.06-.16-.09-.16-.12-.13-.14-.13-.12-.13-.08-.15v-.16l.06-.35.05-.18.07-.37v-.18l0-.16-.08-.15-.24-.27-.08-.16,0-.17,0-.18.17-.72.2-.25.35-.29,1.2-.66.45-.15.2-.16.28-.48.15-.21.4-.37h0l.81-.53.22-.31.1-.24,0-.21.07-.19.1-.19.17-.21.24-.38.15-.18.47-.43.35-.07h.55l.33.07.15,0,.12,0,.09-.17v-.15l.07-.16.08-.13.11-.13.14-.19.87-.75,1.23-.85.79-.24.12-.17.05-.19.09-.22.1-.36-.05-.27-.1-.24.07-.19.3-.14,2.14-.05.43-.21.73-.1.41-.2.32,0H116l.13,0,.19-.12.25-.35.26-.68.65-2.43.13-.33.42-.74.2-.24.18-.18.22-.13.24-.07.25,0,.75.1.21,0,.14-.19.12-.77.14-.49-.1-.38-.18-.22-.71-.1-.18-.12-.92-.26-.18-.15-.12-.21-.08-.25,0-.26V173l0-.26v0l-.09,0-.14-.11-.13-.18-.06-.25,0-.26-.1-.25-.07-.25v-.23l.21-.19.23-.07.25.05.23.08.66.4.49.18.26,0,.23-.1.65-.38.1-.23-.07-.3-.18-.2-.46-.26-.18-.19-.09-.36V169l.32-1.45.12-.39.11-.23.2-.17.38-.41.17-.23.17-.2.18-.15h.22l.47.14h.25l.25,0,.48-.12.47.08.22.12.21.14.94.47.13,0,.35,0Z"/><path id="Catalonia" class="cls-4" d="M339.45,54.27l-.35-.07-.29.28h-.18l-.36-.51-.63,0-.6.11-.45-.36-.35-.52v-.62l-.12-.57.23-.78.06-.49-1.16.2-.7,0-.69-.08-.55-.18-.32-.21-.26-.28-.21-.34-.17-.4-.18-.05-.79,0-.29-.06-.46.3-.87-.34-.89.69-.45.08-.46,0-.43,0-.43.26-.81.79-.43.28-.56.09-1.05-.16-.55,0-.48.24-1.14.9-.21.31.24.7.33.38v.16l-.72,0-.59-.11-1.24-.43h-.52l-.21.19-.23.59-.18.18h-.28l-.3-.1-.55-.31-.5-.13-.52-.41-.42-.57-.2-.59-.43,0-.84-.19-1.57-.74-.32-.26-.75-.42-.85.09-1.67.52-1.27-.16-.43.2-.13.19-.2.54-.13.21-.64.49-.45.49-.31.2-.44.11-.7.08-.36-.06-.33-.21-.53-.46-.26-.56L303,51.16l-.37-.61-.42-.19-.5,0-.63-.15-1.51-1-.57-.24-1.67-.23-.5-.21v-.11l0-.09-.05-.07-.08-.05-.26.3-.3.14h-.33l-.32-.12-.07-.11-.08,0-.08,0-.1.11-.29,1-.86.37-1.7.22-.15.17-.12.21-.17.21-.31.17-.22,0-1.63-.22-.31-.23v-.46l-.78-1.22.46-.21.15,0,.53-.38-.09-.58-.47-.42-.61.08.09-.42.45-.77v-.14l-.22-.14,0-.35.15-.37.12-.22-.39-.51L288.39,43l-.52-.72-.48-.86-.23-.12h-.25l-.14-.15.12-.52-.63-.17h-3.32l-.9.29-.3,0-.46-.34-.27-.5-.2-.57-.26-.53-.48-.43-.56-.18-2.3-.15-.21-.12-.45-.37-.23-.09-.28.09-.25.21-.26.13-.29-.12-.43-.43-.23-.18-.8-.31-1.16-.69-.46-.08-.52.05-.47-.1-.93-.37-.47,0-.74.05-.62.25-.13.53.06.78-.38,1,.3.41-.2.16-.1.15-.16.37.38.14.32.41.18.56,0,.59-.05.09.33.28.51,1,.37,1,.21.31.25.2.23.11.56.1.29.17.09.16,0,.16-.1.23,0,.2,0,.52,0,.22,0,.17-.07.15-.13.21-.15.3-.12.33-.12.14-.09.21-.1.31.07.4-.07.21v.09l-.1.08-.1,0-.11,0h-.2l-.18.13-.08.31.06.27.13.29.06.28,0,.39.1.28.1.15.1.08.12.12.16.24.15.45.22.88L271,53.8v.7l0,.34-.15.48,0,.16V56l-.06.65,0,.24-.23.68-.2.35-.11.15-.06.17-.21,1.14-.09.26-.07.35-.05.38.07.21.08.37-.07.38-.08.78-.11.4-.14.33-.26.19v.18l-.43,1.48-.37.8v.24l0,.28-.12.4-.13.2-.12.14-.3.11-.18.16-.14.19-.19.39-.12.14-.17.1-.23,0-.24.15-.21.2-.16.23-.11.22,0,.22.36.35.24.16.1.18.05.23.06,1.19-.11.25-.18.2-.17.23-.22.11-.39.26-.23.4-.2.26-.23.18-.51.13-.22.08-.15.13-.12.13-.35.61-.28.58-.23.31L263,75l-.91.17-.2.06-.18.11-.1.13-.16.26-.06.2-.2.15-.18.22-.36.6-.64.6-.38.58v.29l0,.28.37.89.13.79.09.29.14.2.23.12.81.1.29,0,.26,0,.22.09.15.3v.28l0,.28.07.27.13.25.1.31-.08.23-.14.22-.53.63-.14.22-.1.21-.05.14v.05l0,.09-.08.08-.19.09-.79.25-.27.25-.07.2,0,.7,0,.69-.28,1-.38.57.08.72.21,0,.45.23.36.36.24.49.09.63-.67,1.51.05.82.16.84-.07.08-.27.17-.31.15-.41.27-.21.25-.12.27-.05.26v.3l-.18.67-.18.24-.22.18-.24.11-.48.13-.17.18-.1.19-.16.15-.23.06h-.25l-.29.16-.13.22-.06.28,0,.27v.26l.07.27.12.19.11.48.3,1,.42.35.39.17.44.34.42,1.3-.11.83-.15.26-.11.34-.31.48-.1.24-.06.26-.1.28-.07.29-.06.36.17.53,0,.28v.36l.1.3.28.64,0,.28L258,109l-.14.23-.52.61-.23.47-.18.2-1.47.88-.14.14.15.44.7.13.55-.12.12.16.08.24.15.28.31.31.59.18.34.22.26.28,0,.23-.13.21-.11.28,0,.33.2.52.25.27.63.34,1.91.67.83.46.31.23.19.25v.24l.1.27.19.3.23.19,1.69.72.13.1.67-1.64.4-.63.45-.48.53-.36,2.22-.73.82-.07.54.09-1,1.54-.89.55-.61-.43-1.3.17.63,1,.86-.12.79-.29.81-.65,1.33-2.09.74-.66,1.73-.51.26-.39.39-.74,0-.74-.53-.18-.33,0-.7-.58-.64-.81-.31-.3-.37-.2-.45,0,.36.27.1.26-.13.18-.33,0-.77-.31-.72-.42.52-1,2.92-3,1.47-2,3-3,.73-.43,1-.47,1.13-.21,1.19,0,.2.07.64.39.29-.14.14-.2.1-.28.47-.85.21-.17,1.89-.41,6.76-2.54,2.29-.17,5.26-1.61.92,0,.26-.08.55-.34,1.81-.47,1.84-.18,1.08-.31,1.89-1,.88-.82.77-1.08,1.31-2.3.73-1,.79-.6,2-.86,1.55-1.07.55-.59,5.45-2.52,3.41-1.45.36-.84h.32l.25-.06.11-.26.08-.16.41-.38.13-.07.29-.09.7-.17.64-.17.86-.21.48-.79,2.41-1.9.77-.44.26-1,1-.76.9.08.77-1.08.44-.47.34-.93.67-1.16.09-.71-.14-.27-.5-.42-.11-.2,0-.24L337,65.8l-.15-.57.11-.47.35-.35,0-.45-.6-.89-.52-.69-.93-.57-.43-.47-.16-.65,0-.89,0-1.29.31-.78.57-.62.5-.1.23.36.85.36,1-.22.43.21.2-.37.24-.2.21-.26.09-.55.1-.36.64-1.27Z"/><path id="Castile_-_Leon" data-name="Castile - Leon" class="cls-5" d="M174.24,40.28l.72.54,1.66.77,1.83.42,1.35.57,2.08.05.18.06.14.07.06.14.12.1.33,0,.29-.17.06-.15,0-.45-.1-.32,0-.24-.08-.2-.09-.11-.18,0-.15.1-.25.29-.17.1-.17.07-.18,0-.16-.1-.26-.4-.13-.16-.14-.14-.13-.15-.1-.15v-.17l.06-.15.14-.1.34-.1.14-.1.1-.14.25-.51,0-.17.07-.16,0-.3-.08-.11h-.28l-.23-.05-.24-.16-.15-.16-.1-.16-.14-.09-.18,0-.23.09-.26,0-.34,0L178,37.7l-.39-.19-.3-.08-.72-.07-1.72.11-.28.08-.16.17-.56.86-.39.45-.05.25.13.31Zm28.14,36-.18-.11-.16-.21-.06-.27-.22-.46-.45-.69-.19-.22L201,74l.09-.32.29-.53.16-.23.12-.26.1-.3.05-.3V71.8l-.56-.81-.4-1.16-.17-1.76-1,.58-.22.17-.48.3-.27.11-.3.08-.65.07-.27-.08-.28-.26-.26-.2-.68-.28-.45,0-1.48-.39L194,68l-.14-.23-.15-.53,0-.25,0-.23.13-.16.11-.11.05,0V66.3l-.07-.19-.27-.46-.64-.54-.15-.23-.09-.27,0-.27,0-.24.16-.18.21-.12.2-.18.12-.21v-.26l-.14-.22-.27-.18-.43-.11-.5,0-.48.05-1.5.53H190l-.26-.21-.16-.24-.09-.27,0-.27-.06-.26-.07-.23-.15-.15-.26-.13-1.38-.16-1.7.13-.73.24-.34.32-.61.42-.24.12-.56-.1-.16,0-.09.19,0,.26,0,.56L183,64l-.11.19-.14.13-.15.11-.18.16-.14.22-.11.28-.29.57-.3.46-.07.19-.05.11,0,.06-.48,0-.77-.1-1,.06-.13,0H179l-.21,0-.51-.4-.29-.12-.33-.07h-.41l-.39-.2-.13-.23,0-.26.08-.27.1-.26.07-.26.1-.22.35-.35.14-.22.09-.51v-.26l0-.25-.08-.22-.22-.13-.27-.08-.72.07-.32.2-.32.41-.1.3-.14.28-.07.26,0,.26.06.26v.28l-.14.32-.3.33-.73.46-.83.39-1.06-.31-.2-1.22-.11-.22L172,63.9l-.12-.25-.15-.21-.22-.08h-.24l-.24.06-.4,0h-.4l-.21,0-.35,0-.42-.21-.27-.42-.09-.25-.12-.24-.29-.44-.42-.29-.19-.16-.18-.48-.07-.28-.9-1.37v-.19l.33-.29.18-.3.31-1.14.06-.41,0-.35,0-.27,0-.27-.09-.26-.07-.29-.05-.29v-.63l0-.27-.16-.19L167,54l0-.2.27-.13.52-.11.17-.14.43-.76v-.28l-.06-.27,0-.3,0-.81.23-.75V50l-.08-.26-.14-.22-.07-.24-.15-.2-.4-.28-.07-.25.07-.3.18-.45.08-.33,0-.3L168,47l-.15-.17h-.21l-.24,0-.21.1-.22,0-.12-.14,0-.28.81-.91.11-.23.16-.23.18-.21.17-.29,0-.26-.09-.26-.3-.44.1-.24.41-.19,1.15-.13,1.76.21.41.18.72.14,1.87-.65-.12-.43-.29-.35-1.76-1.48-.68-.31-.68-.86-.42-.2-.51-.37-.76-.72-.86-.46-.82.4-.69.21-.12,0h-.34l.11-.28.09-.33-.15-.26-.19-.17-.17-.21-.11-.24,0-.27.1-.29.17-.34.3-.39.29-.48.18-.37.06-.42-.1-.27-.19-.12-.24.06-.38.55-.2.2-.2.13-.51,0-.25.06-.22.12-.19.19-.12.23-.1.22,0,.2-.05.19-.15.08-.19-.08-.19-.15-.82-1.07-.38-.36-.11-.21,0-.25.1-.25.14-.26.38-.42.31-.45.12-.26.18-.24.24-.21,1-.11.33.06.27.08.23.13.17.19.13.48.15.19.21.11.25.08.53.08.26.07.26,0h.26l.44-.11h.57l.23-.05.2-.16.34-.32h.22l.36-.11.14-.11.09-.16.05-.2,0-.2-.13-.24-.78-.27-.35-.24-.24-.28-.14-.2v-.33l.33,0,.5-.09H170l.06-.05.11-.12.09-.23.06-.31-.06-.21-.21-.23-.51-.17-.18-.22,0-.21v-.22l-.13-.16-.22-.09-.5.24L168,29.39l-.31.12-.19-.06-.8,0-.82-.23-.22-.11-.12-.14.11-.23.16-.24L166,28v-.88l.15-.67,0-.43L166,25.8l-.47-.19-.15-.22,0-.33.21-.58.14-.29.48-.38v-.36l-.1-.13-.15-.11-.59-.09h-.91l-.6-.1-.45-.41-.16-.09-.19,0-.24,0-.27.1-2.26,1.45-1.65.64-.76.07-.8-.11-.5,0L156,24.6l-.73-.34-.76-.21-.79-.11-.22-.13-.42-.33-.24-.1-.3,0-.39.25-.54.59-.64.87-.4.43-.32.26-.49.28-.41.36-.24.11-.25,0-.77-.07-.26,0-.23.07-.18.14v.32l0,.33-.1.36-.33.36-.27.15-.41.13-.43.25-.55.61-.49.33-.22.1-.21.16,0,.05-.22.43-.62,1.73,0,.26v.27l.11.27.17.23.23.18.26.1h.27l.49-.16.7-.42.19-.19.23-.47.13-.2.22-.09.23-.06.24.08.2.17.18.24.15.24.06.23-.15.27-.81.52-.77.05,0,.15,0,.18-.16.16-.08.19.11.43V35l.1.23.19.15h.23l.22-.15.21-.35.2-.26.33-.17.28,0,.22.13.1.25,0,.29,0,.38.06.29.2.4.07.18,0,.25,0,.25-.15.22-.26.15h-.93l-.47.1-.93.87-.32.17-.53.17-.44.07-.94-.27.07-.59,0-.25,0-.83,0-.21-.07-.09-.22.1-.21.16-.76,1.7-1,.26-.28-.48L140.3,38l-.24-.18-.27-.11-.72-.06-.31-.11-.53-.47-.19-.21-.07-.21.08-.21.2-.12.48-.15.25,0,.23-.11.16-.18.08-.24,0-.27-.18-.2L139,35l-.65.19-.25.17-.35.3-.13.06h-.2l-.2-.09-.15-.18-.06-.19,0-.15,0-.22,0-.24v-.28l-.06-.25,0-.27,0-.26-.13-.52-.06-.52,0-.26V32l-.06-.25-.38-.27-2.77-1-.37-.27-.16-.25,0-.06-.1-.27-.53-.91L132,28.5l-.65-.36L131,28h-.45l-.5.31-.26.11h-.4l-.35.06-.91.51-.36,0-1-.08-1,.21h-1.36l-.44.14h-.57l-.21-.94-.11-.25-.53-.52-.16-.34-.16-.26-1.1-.6-.25-.22-.19-.27-.15-.58-.07-.41.11-2-.74-1.28-.53-.43-.26-.09-.26,0-.27,0-1.43.78-.42.39-.84.47-1,.28-.46.24-.25.23-.28.53-.1.24-.05.27-.2.58-.2.32-.41.4-.32.05-.27-.09L112,25.7l-.25,0-1.41.71-2.57.31-1.44-.22-.35.07-.24.16-.19.79-.23.27-.26.11-.29.06-1.47,0-.14.18-.07.23-.12.23-.13.18-.21,0-.5,0-.64.27-.29,0-.27-.07-.24-.13-.22-.17-.59-.13h-.39l-.58-.13-.76-.38-.4-.05-.68,0-.39.14-.28.17-.14.23-.09.23-.14.23-.18.21-.13.22-.08.22,0,.1,0,.1-.07.2-.11.2-.1.22-.23.27-.29.08-.42.07-1.08,0-.27-.1-.22-.14-.7-.28L92,30.28l-.3-.1L91.35,30,91,29.67l-.64-.41L90.23,29l-.11-.25L90,28.54l-.1-.53-.14-.23-.31-.17-.78.18-.36,0L87,27.51l-.25.11-.08.21,0,.26-.08.28-.18.26-.53.25-.36,0-.34-.09-.74-.3-.65-.12-.35.08-.17.19-.07.5-.12.17-.22,0-.52-.13-1.18-.6H80.8l-.52-.16-.22-.21-.25-.17L79.33,28l-.75.34-.16.26-.08.24-.18.24L78,29.3l0,.23v.2l-.11.16-.2.11-.56.18-.77,0-.13.15,0,.2.13.2.22.14.48.18.17.15,0,.23-.11.24-1.42.79-.38,0-1,.4L74,33l-1.25-.11-.17-.14-.22-.08L72,32.58H70.77l-.5.09-.49.16L69.5,33l-.21.21-.18.24-.22.21-.3.17-.2,0-.17-.37-.49-.25L66.85,33l-.24.34-.05.33-.12.28-.46.54,0,.46.22.9v.3l-.1.42L65.9,37,65,38l-.6.86-.28.27-.27.13-.24,0-.22-.06-.27.08-.61.62-.77.34-.12.1-.31.43-.13.3-.06.33.1.48.16.32.19.26.18.21.08.24v.23l-.24.22-.24.14-.21.22L61,44l.06,1,0,.42-.47,1.06-.06.29v.68l-.24.68,1.21.05,1.16.26.29,0,.11-.1,0-.08.12-.12.25-.16.53-.18h.35l.28.13.33.28.12.07,1.93.54.33.77-.06.29-.06.63-.09.32-.12.24-.21.3-.09.1-.2.09,1.35,1.14.91.59.4.45.13.33-.06.27,0,.27,0,.52v.26l-.06.25-.1.23-.32.4-.36.69-.36.33-.44.53-.08.28-.08.47-.16,0-.51-.16h-.38l-.6.14-.42.27-.43.34-.93.95-.21.32-.11.25-.29,1-.19.22L63,62l-.22.09-.21.2-.65,1-.36.36-.09.28,0,.24.17.19.19.15.21,0h.55l.19.12.28.44,0,.11,0,.17-.48,1.15-.09.27,0,.21.13.34,0,.39h0L63,68l.66.52.75.15,1.67-.14.64-.4L66.93,67l.82.15,1,1.53.81.25,1.92-.08.91-.29.36-.77.66.28.36.44.11.6-.22,1.56.21.25.48.07.7.23-.31.68-.66,3-.11.34-.19.3-.16.33.08.31.18.31.12.34.07.67.14.71.37.58.76.29.28-.08.4-.21.37-.26.18-.22.19-.16h.37l2.18.46,1.32.49,1.21.79L83,81.07l.38.53.27.35-1.28,1.9-.7.74-.17.36,0,.28.07.24v.24l-1,1.66v.31l-.84.06-.37.15-.35.28.08,0,0,.22,0,.28-.07.2-.11,0-.33-.07-.11,0-.85,1.38-.87.89-.88.69-1.58.69-.24.18-1.76,0-.48.08-.31.35-1,1.45-.2.54-.15.29-1,.82-.35.45-.1.25.07.88-.22.65-1.07,1.59-.37.37-.74.08-1.66-.15-.56.29h0l-.11.67-.29.47.06.45.26.4.85.9.38.64.58,1.45.23.75.22.3.4.11L67,107l.13.47-.11.45-.44.14,0,.9,0,.24.09.37,0,.2-.07.19,0,.35V111l.06.5.34,1.16.22,1.19.05.63v.43l-.19.6-.62,1.15-.16.55.06.62.23.36.3.32.28.48.15.61-.08.43-.63.9-.5,1.24.16,1.15.63,1,.91.86-.47.85-.24.25-1.16.86-.17.19-.1.27,0,.3.33.26.48.56.26.19.28.14.26.07h.27l.28-.12.25,0,.2.08.51.06.87-.47.23,0,.51.29.27,0,.3-.13.24-.16.36-.14,1.88-.35.38-.16.24-.18.17-.2.08-.24v-.25l-.14-.49v-.24l.13-.22.17-.21.84-.66.21-.12L76,125l.2-.12,1-.37.56-.62.23-.14.29-.11.8-.17.26-.18.14-.25.09-.25.13-.22.19-.19.24-.19.28-.17.47-.09.35-.1.33-.15.92-.68.26-.15.34,0,.47.1.91.59.28.23.43.47.25.13.52.13,0,.23,0,.22.22.2.33.17.57.21.15.16v.15l-.16.27v.14l-.07.14-.11.14-.05.13-.06.28-.08.14-.18.13.08.14.35.19.94.38.59.35.36.3.22.27.37.29,1,.5.7.27.35,0,.24-.12.19-.2.13-.24.1-.26.07-.25.11-.22.18-.15.2-.11.9-.26.56-.3.25-.07.25,0,.26.36.1.29,0,.29L95,127l-.24.43.05.2.17.15.57.06.93-.34,1.1.44.76.55.85.77.63.87.7.41,1,.36,1.05,0,.17,0,.22-.07.22-.1.37-.37.18-.22.92-.78,1.36-.4.5,0,.13.15v.2l-.3.73-.07.26,0,.27.09,1.58.2.47.13.22.1.27.47.76,2.63.33.76.36.31.24.64,0,.43-.1.25-.11.17-.14.1-.14,1.11-.84.11-.16L114,133l.21-.18.32-.18.69-.22h.3l.18.15.18,1,.13.19.39.11.6-.13.39-.17.58-.41.2-.2.12-.23.11-.26.05-.26.23-.43.28-.26.46-.3.28-.25.6-.34.44-.39.32-.43.06-.32,0-.28.15-.49.15-.17H122l1.27-.18.6-.19h.29l.14.21,0,.25.05.27.07.24.12.83.08.25.14.2.19.16.52.24.36.1.38,0,.62-.16.82-.34.37-.61.23-1.2.34-.72.14-.2,0-.26,0-.28-.14-.46,0-.27v-.32l.15-.15.19,0,.19.16.3.45.16.14.13.05.46,0,.26-.09.32-.22.2-.32.26-.52.1-.33,0-.26v-.2l.09-.59.11-.2.23-.26.15-.12.16-.09.16,0,.18,0,.22.06.15.06.16,0H133l.19-.1.76-.06.27-.14,0-.19-.14-.5.22-.77.11-.29,0-.24,0-.24-.06-.23v-.43l0-.19V120l0-.2v-.52l0-.3v-.36l.19-.34.2-.2.2-.14.1-.11.07-.12.05-.13.11-.4v-.49l-.06-.26-.1-.25v-.33l.12-.18.19,0,.15.15.19.42.18.15.23.1.24.06.51-.09.48-.2.28-.07.29-.11.28-.23.07-.25V115l.07-.57v-.24l.19-.7.77-1.13.1-.22,1-1.55.28-.26.53-.27h.33l.3.06.23.1h.24l.62-.13.15-.06.16-.15.1-.28.12-.25.19-.52.06-.26,0-.53,0-.27.12-.28.17-.33.08-.28v-.27l-.09-.49.05-.25.09-.25.35-.64.4-.5.23-.36.25-.29.27-.22,2.32-.8.26-.15.24-.19.37-.58.13-.27.16-.27.26-.53.26-.31.41-.36,1.16-.81.52-.55.48-.62.17-.26.21-.26.27-.27.85-.53,1.25-.28.48.06.22-.08L158,95l.62-.15.21-.1.07-.29.07-.55V93.7l-.12-.24-.14-.21-.09-.17.08-.1.73.31,1.35.07,1.31-.26.3-.19.83,0,.79-.95.57-.29,3.1.73h.94l1.79-.23L171,92l.43-.27.08-.22.14-.2.16-.19L172,91l.31-.09.34,0,.47.25.15.25.07.27,0,.26.16.5.22.22.32.17,1,.29.66,0,.3-.16.24-.18.25-.12h.28l.36.05.21.25.13.25.16.23.3.16.48.15.66.1.44.22.22.23.15.2.21.09.24-.06.26,0,.21,0,.16.23-.07.2-.13.23-.4.29,0,.14.21.18.47.26.14.25,0,.24-.23.39.07.19.22.11.3,0,.44-.17.27-.16.24-.08.25.17.13.23.11.25.06.23.09.18.07.1.14.1.33.17.18.12.11.21.15.52.12.26.2.23.29.18.73.33.36,0,.88-.45.32-.11.32.1.21.17.48.28.37.05.67-.13.41-.14.34-.17.31-.27.32-.19.48-.08.61.1h.25l.26-.07.87-.85.22-.14.22.07.16.18.2.18.66.43.18.17.14.21.17.18.21.07.16-.09.06-.2-.07-.22,0-.67.25-.91v-.53l-.23-.3-.59-.47-.23-.11-.25-.08h-.26l-.49-.08-.23-.08-.18-.18-.11-.26-.06-1.34-.21-1.36-.06-.23-.11-.19-.21-.49,0-1.19.15-.65.17-.26.16-.14.18-.07.19-.14.17-.23.16-.28.15-.81,0-.32v-.28l0-.28.09-.28.14-.23.3-.17.81.12.47.16.19.15.11.21,0,.26v.27l0,.3v.26l.09.21.18.12h.23l.22-.1.49-.36.44-.25.26-.08.27-.05.23-.1.16-.14L198.11,86,198,85.7l-.15-.25-.19-.22-.12-.43-.09-.59.07-1.26-.16-1-.16-.16-.06-.24V81.3l.07-.25.2-.23.15-.12.15-.09.13,0H198l.22.11.5.17.23-.07.18-.16.16-.24.46-.55.52-.27.25-.22.3-.34.27-.15.27,0h.25l.24-.13.23-.32.21-.6.18-.35.12-.32.07-.49Z"/><path id="Castile_-_La_Mancha" data-name="Castile - La Mancha" class="cls-5" d="M226.24,183.22l-.18-.21-.29-.44-.16-.19-.25-.37-.18-.42-.13-.67,0-.26.1-.24.25-.09.52-.41,0-.57.1-.17.07-.23,0-.16-.35-1.06v-.28l.13-.52,0-.26-.15-.32-.88-1.54-.32-.22-.28-.11-.26-.06-.2,0-.15.06-.41.28-.49.11-.76,0-.74.17-.74,0-.36-.19-.46-.37-2.61-3.1-.2-.32-.15-.56,0-.36.07-.3.08-.24,0-.24.1-.24.27-.5.11-.26.16-.53.12-.24.32-.43.19-.18.16-.21.23-.51.06-.24.13-.33,0-.2.09-.22.07-.26.06-.51,0-.25V164l0-.27.06-.54.06-.26.09-.26,0-.27-.17-.28L215.45,161l-.28,0h-.22l-.29-.13-1.22-.81-.57-.2h-.25l-.14.09-.15,0-.24,0-.15,0-.13,0-.07-.24,0-.2,0-.21,0-.16-.08-.14-.26-.09-.07-.14,0-.12-.2-.07-.13-.12-.07-.21-.07-.15-.38-.08-.16-.29-.11-.08-.11-.14-.07-.15,0-.17V157l.15-.25.17-.6,0-.37.05-.15.11-.09.08-.08,0-.08,0,0,0,0-.06-.13,0-.32,0-.17v-.18l0-.15.06-.2v-.09l0-.12-.06-.12,0-.1v-.13l0-.13.14-.37.1-.13.25-.13.28-.26.31-.41,1-1.92.16-.21.61-.62.48-.41.24-.1.24,0,.24,0,.46.22.21.13.24.08h.5l.26-.06.23-.12.21-.15.16-.21.12-.25v-.35l-.11-.54,0-.25v-.29l.08-.32.62-1.12.3-.4.19-.33.21-.55.4-1.8.07-.57,0-.54.07-.55v-.27l-.06-.21-.16-.33,0-.18.08-.2.2-.22,1-.47.34-.3-.46-1.38-.48.09-.18.1-.5.1-.48,0-.26.06,0,0-.22.09-.43,0-.73-.28-1.71-.29h-.28l-.26-.08-.24-.2-.76-2.23-.1-.44-.07-.24-.11-.17-.65-.38-.18-.19-.12-.17.1-.67.15-.33.13-.44,0-.25v-.25l0-.22-.13-.15-.68.13-.3,0-.38-.15-.38-.1h-.28l-.37.21-.22-.1-.36-.26L206,127.85l-.68-.36-.4-.05-.24.13-.12.12-.15-.07,0-.44.12-.28,0-.4-.14-.49-1.12-1.52-.46-.49-.78-.35.33-.45.17,0,.19-.18.88-1.35.23-.29.24-.2.51-.26.22-.18.16-.28v-1.26l0-.48.43-1.3.13-.22.18-.14.68.17h.25l.45.19.21.17.22.13.23,0,.24,0,.45-.27.22-.17.16-.22.12-.21-.11-.68,0-.41.15-.57.22-.48.08-.28v-.75l-.07-.36-.2-.47-.16-.31-.11-.31v-.36l0-.3.11-.3.25-.53.08-.34,0-.85,0-.32-.09-.27-.25-.28-.7-.48-.37-.44-.2-.28-.21-.47-.14-.53.06-1.16,0-.3-.32-.68-.93-.83-.17-.22-.28-.29-.17-.22-1.44-1.26-.39-.46-.15-.24-.09-.24-.13-.22-.17-.23-1.34-1.14-.9-.51-1.1-.86-.68-.28L198.8,97l-.26-.25-.17-.26-.73-.2-2.19.7v.53l-.25.91,0,.67.07.22-.06.2-.16.09-.21-.07-.17-.18-.14-.21-.18-.17-.66-.43-.2-.18-.16-.18-.22-.07-.21.14-.87.85-.26.07h-.25l-.61-.1-.48.08-.32.19-.31.27-.34.17-.41.14-.67.13-.37-.05-.48-.28-.21-.17-.32-.1-.32.11-.88.45-.36,0-.73-.33-.29-.18-.2-.23-.12-.26-.15-.52-.11-.21-.18-.12-.33-.17-.14-.1-.07-.1-.09-.18-.06-.23-.11-.25-.13-.23-.25-.17-.24.08-.27.16-.44.17-.3,0L181.1,97l-.07-.19.23-.39,0-.24-.14-.25-.47-.26-.21-.18,0-.14.4-.29.13-.23.07-.2-.16-.23-.21,0-.26,0-.24.06-.21-.09-.15-.2-.22-.23-.44-.22-.66-.1-.48-.15-.3-.16-.16-.23-.13-.25-.21-.25-.36-.05h-.28l-.25.12-.24.18-.3.16-.66,0-1-.29-.32-.17-.22-.22-.16-.5,0-.26-.07-.27-.15-.25-.47-.25-.34,0-.31.09-.23.12-.16.19-.14.2-.08.22L171,92l-.6.15-1.79.23h-.94l-3.1-.73-.57.29-.79.95-.83,0-.3.19-1.31.26-1.35-.07-.73-.31-.08.1.09.17.14.21.12.24v.25l-.07.55-.07.29-.21.1L158,95,156,96.59l-.22.08-.48-.06.11.63,1,1,.29.48.25.26.2.15.63.32.2.06.25.11.32,1.22.4,1.11v.49l-.08.33-.21.46-.09.27-.12.26-.23.82-.1.27-.13.26-.09.34-.09.25,0,.28.13.3v.37l-.11.19-.15.14-.12.06-.12.1-.1.13-.07.17-.16,1-.05.21-.14.36-.17.33-.09.15-.1.12v.13l.07.13.19.13.78.24.19.23.18.39.06.36,0,.48.1.25v.27l-.09.22-.33.46-.1.31.1.21.17.21.18.17.21.1.42-.1.38,0,.14-.14.09-.18h.19l.23.29.38.68.3.33.28.19.21,0,.19-.09.14-.09.18.07-.16.76-.05,1,.12.3.15.24.24.15.37.35.08.24.06.28,0,.16-.05.11-.07.09,0,.16.05.12.09.08h.19l.16,0,.16-.12.18-.1.17-.07.24,0,.22.11.19.18.21.17.56.55.08.21,0,.16v.13l.06.7,0,1,.1.25.19.15.24.05.3.17.33.27.41.69.09.39,0,.28-.07.15,0,.12,0,.33v.17l0,.17-.08.15-.11.33,0,.17-.05.19-.12.2-.38.39-.16.25-.07.39,0,.32-.09.31-.07.33v.38l.07.5.2.25h.2l.19-.18.16-.22.19-.22.7-.52.26,0,.31.22.23.45.24.63.09.41,0,.33v.73l.27,1.41-.19,0-.1,0-.08.14,0,.32.1.24.06.28.09.24.12.23.17.2.09.23,0,.25-.15.27-.27.29-.41.34-.53.16-1.35.07-.05-.35-.1-.15-.48-.28-1.09.37-1.63.87-1.11.19-.34.11-.3-.05-.51-.4-.93.42-2.58-.11-.36.32-.19.38-.12.19-.24.11-1.07.27-.22.11-.17.12-.19.18,0,0-.5.13-.42.16-.13.15,0,.5-.07.18-.22.12-.63.18-.47.34-.31.14-.49.05-.29.1-.21.1-.18.16-.25.3-.38.37-.23.1-.42.34-.2.24-.32.09-.43-.07-.85-.54-.33-.3-.12-.25.25-.22L147,140l1.68-.53.32,0,.14-.12.44-.51.15-.11.5-.15.43-.37,1.25-1.34.35-.21.2,0,.32-.21.13-.11.06-.13.22-.34.07-.15.24-.72,0-.18,0-.35,0-.17-.1-.17-.28-.24-1.32-.66-.5,0-.43-.13-.37-.06-.68.11-.32-.09-.15-.07-.19-.13-.41-.6-.19-.15-.21-.07-.46.12-.25,0-.26-.21-.15-.2-.15-.15-.14-.1-1.28-.33-.86-.42-1.44-.46L143,130l-.24-.21-.13-.24-.17-.24-.2-.2-.24-.16-.58-.24-.24,0-.24.2-.25.16-.36.12-.51-.08-.43-.14-.76-.76-.17-.21-.21-.15-.25,0-.67.42-.68.12-.29.21-.15.19-.2.38-.22.34-.18.2-.38.32-.14.07-.11,0-.38-.43-.41-.17-.24-.2-.18-.21-.21-.47-.07-.24v-.26l.07-.52,0-.24-.11-.21-.17-.14-.15,0L133,127l-.34.51-.13.26-.18.24-.82.86-.14.28-.25.29-.38.26L130,130l-.34.2-.26.24-.13.21-.25.14-.33,0-.44-.09-.61-.4-.82.34-.62.16-.37,0-.36-.1-.52-.24-.19-.16-.14-.2-.08-.25-.12-.83-.07-.24-.05-.27,0-.25-.14-.21h-.29l-.6.19-1.27.18h-.56l-.15.17-.15.49,0,.28-.06.32-.32.43-.44.39-.6.34-.28.25-.46.3-.28.26-.23.43-.05.26-.11.26-.12.23-.2.2-.58.41-.39.17-.6.14-.39-.11-.13-.19-.18-1-.18-.15h-.3l-.69.22-.32.18L114,133l-.23.26-.11.16-1.11.84-.1.14-.17.14-.25.11-.43.1-.64,0-.31-.24-.76-.36-2.63-.33-.8.37-.08.13-.12.29-.14.88,0,.36.06.33L106,138l-.46,2.61v.94l.12.44.25-.1.51-.11.74-.06.24.05.22.11.19.17.18.2.15.21.12.22v.24l-.08.23-.29.46-.13.29-.07.42,0,.4-.07.35-.07.76.1.3.14.17.92.19.37,0,.17-.06.14-.12.3-.49.24-.28.55-.47.18-.06.54-.08h.18l.2.13.12.28.12.46v.33l-.17.53.08.21.36.44.19.29,0,.28,0,.26-.1.24-.12.49,0,.74-.09.23-.06.24-.1.23-.28.43-.12.24-.16.22-.14.23-.29.41-.05.21.08.21.17.19.2.18.43.29.2.17,1,1.28.57.62.39.32.21.25.4.25.48.12.19.14.39.66.8.93.28.41.35.39.13.12.28.23.31.27,1.73.87.67-.4.14,0,.2-.06.17-.12.61-.3,1-.29.29-.14.38-.47,1.33-.71.29-.4.4,1.12-.09.61-.4.76-.4,1.19-.25.32-.27.18-.28.06-.24.12-.2.28v.36l.07.3.51,1.27.47.87,0,.14.14.24.31.25.77.94.32.59-.35,0-.13,0-.94-.47-.21-.14-.22-.12-.47-.08-.48.12-.25,0H122l-.47-.14h-.22l-.18.15-.17.2-.17.23-.38.41-.2.17-.11.23-.12.39-.32,1.45v.49l.09.36.18.19.46.26.18.2.07.3-.1.23-.65.38-.23.1-.26,0-.49-.18-.66-.4-.23-.08-.25-.05-.23.07-.21.19v.23l.07.25.1.25,0,.26.06.25.13.18.14.11.09,0v0l0,.26v.24l0,.26.08.25.12.21.18.15.92.26.18.12.71.1.18.22.1.38-.14.49-.12.77-.14.19-.21,0-.75-.1-.25,0-.24.07-.22.13-.18.18-.2.24-.42.74-.12.33-.65,2.43-.26.68-.25.35-.19.12-.13,0h-.19l-.32,0-.41.2,1.54,1.18.9.37h.58l.31-.05h.8l.26.16.1.24.06.53v.26l0,.54.13.32.32.38.56.37.39.15.34.07H122l.34.1,1.1.5.35.25.21.25.08.21.5.31.46.18.95.74.24.32.14.29.22.31.21.15.25.09h.25l.37.11.33.27.41.2.7.6.76.81.52.77.25.3.28.17,1.19.56.7.24.36,0,1.74.72.32,0,.39-.07,0-1.27.08-.23.18-.23.24,0,.56,0,.53.07,1,.37,7.64.31.91-.15.55-.23.27-.52.18-.26.42-.27.36-.1.43,0,.3,0,.25.13.45.16.22-.07.19-.09.22,0,.68.3.54.07,1.4.35h.34l.3-.08.2-.13.1-.21.12-.76.1-.26.28-.19.34,0,.26,0,.15.18.1.21,0,.24.07.24.11.21.2.13.89.24.44.07h.33l.33-.06.7-.29.62-.39.39-.42.13-.21,0-.24.05-.24.11-.25.21-.24.43-.23.62-.09.41,0,.32.11.48.24.49.17.52.1,1.87.1.9.28.38,0,.26-.13.4-.38.77-.49h.24l.21.13.18.21.62.91.37.41.23.15.1-.1.05-.19.07-.46.16-.18.55-.39.42-.2.34-.05h.4l.28.06.28.09.21.17.3.18.13,0,.09,0,.06-.07.07-.06.15-.07,0,0,0-.06.05-.09.24-.22.16-.12.76-.43.14-.06.1-.08v0l.43-.23.56-.46.07-.13.31-.31,1,.65,1.17.48.51-.21.36-.1.44-.05.74,0,.45.16.23.11.05.05v.17l-.09.41.06.48.06.24,0,.49-.07.24,0,.23.07.24.11.17.27.29,1.84.54,0,.19,0,.49,0,.27.05.25.1.23.07.52,0,.54,0,.31,0,.32.17.34.84.53.2.34.05.25v.23l0,.22,0,.26-.05.21-.07.2-.1.16-.12.11-.09.11v.18l.12.41,0,.3-.05.28-1.66,2.15-.25.46-.16.23-.38.41-.3.43,2.2,1.07,2.82.86.28,0,.33-.1.39-1.23.15-.24,1-1.16.82-1.13.76-1.6.28-.45.78-.75.34-.2.31-.11.53-.11.32-.17,1.14-1.05.7-.84.44-.27.3-.05.23,0,.2.13.46.44.16.09h.21l.72-.25.86-.15.43-.15.66-.37,1-.78,1.41-.85.08-.2v-.18l0-.06h.12l.34-.08.18-.19.2-.1.25-.08h.2l.18,0,.31.2.16.08.44-.08.18,0,.14.09.12.12.09.14,0,.17V195l-.07.18,0,.19,0,.18.06.17.1.16.12.14.15.11.36.17.23.08.26.05.26,0,1.6-.51,2-1.61.25-.28.12-.24.05-.26,0-.27V193l-.13-.83v-.57l-.07-1.08-.11-.56-.14-.46-.1-.2,0-.14,0-.2,0-.2.05-.2.07-.18.33-.59.24-.24.32-.22.16-.23.12-.24,0-.52v-.26l.08-.53.45-1,.83-1,.46-.41.38-.2.21,0,.15.17.13.2.2.13h.3l1.51-.86.68-.7.26-.21.26-.14,1.59-.41.26.05,1,.32.23.11.15.19,0,.24,0,.25.07.23.11.22.74.69,1.5,1.14.42-.13.14,0,.65,0,.54-.08.47-.18.85-.6.13-.13v-.12Z"/><path id="Cantabria" class="cls-1" d="M165.9,16.85v-.24h0l-.7-.22-.62-.72-.28-.16-.35-.07L162.71,15l-1.65-.23-1.29-.46-.39-.07-.8.24-.38,0-.29-.44-.38.68-.25-.16-.31-.42-.54-.1.43-.25.22-.2.09-.21.12-.2.25.07.25.17.11.1.22-.05.17,0,.11-.05,0-.33,0-.23-.09-.19-.14-.13-1.85-.32-.25-.15-.29-.31-.36-.27-.46,0,.05-.64-.68-.05-2.07.65-.3.15-.27.27-.31.19-.8.06-.29.13.2.28-.12,0h0l0,.19-.18-.12-.16-.05-.38-.06v.23l.18.18.16.35.06.34-.12.15-.25-.08-.25-.36-.24-.08-.1.11-.36.51-.19.19-.4.2-.24,0h-.3v-.17l0,0h.07l.09,0-.15-.09-.12-.1-.28-.34.36-.4.49-.33,1.17-.53-.75-.5-.8-.16-.81.17-.78.49L146,12l-.08,0-.34.21-.44-.13-.47.2-.93.68v.23l.25.21.12.06-.16,0h-.13l-.12,0-.13.17-.65-.47-.19-.06-.22.08,0,.17,0,.18-.16.1H141l-.64.1-1.7.54-.74.59-3.35.36-1.25-.15-.25.13-.28.47h-.17l-.52-.5-.74-.21-.76.15-.56.56-.71-.7h-.15v.23l0,.45-.23.51-.34.59-.08.23.06.22.11.15.24.68.08.52,0,.36-.09.31-.17.23-.2.17-.22.05-.16-.13-.15-.42-.18-.14-.49-.12-.29,0-.26,0-.41.26-.18.21-.12.21-.13.1-.25.13-.56.05h-.26l-.25-.05-.28,0-.28.09-.32.18-.16.22-.06.25.07.51-.06.25,0,.25,0,.3-.07.32-.18.4-.22.18h-.25l-.51-.11-.25,0-.26.09-.8.13-.33,0-.11,2,.07.41.15.58.19.27.25.22,1.1.6.16.26.16.34.53.52.11.25.21.94H124l.44-.14h1.36l1-.21,1,.08.36,0,.91-.51.35-.06h.4l.26-.11.5-.31H131l.32.1.65.36.24.19.53.91.1.27,0,.06.16.25.37.27,2.76,1,.38.27.06.25v.26l0,.26.06.52.13.52,0,.26,0,.27.06.25v.28l0,.24,0,.22,0,.15.06.19.15.18.2.09h.2l.13-.06.35-.3.25-.17L139,35l.24.12.18.2,0,.27-.08.24-.16.18-.23.11-.25,0-.48.15-.2.12-.08.21.07.21.19.21.53.47.31.11.72.06.27.11.24.18.14.18.28.48,1-.26.76-1.7.21-.16.22-.1.07.09,0,.21,0,.83,0,.25-.07.59.94.27.44-.07.53-.17.32-.17.93-.87.47-.1h.93l.26-.15.15-.22,0-.25,0-.25-.07-.18-.2-.4-.06-.29,0-.38,0-.29-.1-.25-.22-.13-.28,0-.33.17-.2.26-.21.35-.22.15h-.23l-.19-.15-.1-.23v-.26l-.11-.43.08-.19.16-.16,0-.18,0-.15.77-.05.81-.52.15-.27-.06-.23-.15-.24-.18-.24-.2-.17-.24-.08-.23.06-.22.09-.13.2-.23.47-.19.19-.7.42-.49.16h-.27l-.26-.1-.23-.18-.17-.23-.11-.27v-.27l0-.26.62-1.73.22-.43,0-.05.21-.16.22-.1.49-.33.55-.61.43-.25.41-.13.27-.15.33-.36.1-.36,0-.33v-.32l.18-.14.23-.07.26,0,.77.07.25,0,.24-.11.41-.36.49-.28.32-.26.4-.43.64-.87.54-.59.39-.25.3,0,.24.1.42.33.22.13.79.11.76.21.73.34.51.11.5,0,.8.11.76-.07-.05-.46-.2-.77-.12-.26-.09-.26v-.26l0-.26v-.28l0-.27-.09-.26.09-.33.29-.37,2.26-1.63.31-.28.35-.18,1.67.12.7-.09.6.22.25,0,1.17-.57.17-.27.12-.35Z"/><path id="Basque" class="cls-4" d="M203.55,18.87l-.09-.72-.34-.46-.77-.38v-.45l0-.78.06-.43-.46-.34-1,.52-1,.92-1.1.5.18.15.23.27.15.11-.38.28-.21-.18-.19-.36-.32-.26-.4,0-.31.14-.62.4-1.91.7-.56.09-.34.11-.78.62-.19-.08-.08-.17-.06-.17L193,18.8l-.18,0-.13.09-.09.09-.07,0-.33-.12-.24-.26-.19-.26-.16-.12-.31,0-.9.25-1.17.14-1.14-.12L187,18.27,184.37,17l-.51-.79-.61-.24-1.15-.24-1.56-.68-.84-.15-.3-.13-.32-.09-.32.06-.13.15,0,.21v.22l0,.18-.21.68-.11.15-.1-.78-.31-.93-.23-.4-.53-.53-.56-.43-.34-.08-.47.17-.57.23-1.27.13-1.37-.06-.67.07-.45.27v.23h.18v.26l-.43.12-1.17.72-.31.38-.36.12-.13.18v.15l.16.27.09.46.32.89v.28l-1.33-1.16-.85-.54-.62.48-.51-.06-.51-.16v.24l0,1.08-.12.35-.17.27-1.17.57-.25,0-.6-.22-.7.09-1.67-.12-.35.18-.31.28-2.26,1.63-.29.38-.09.33.09.26,0,.27v.28l0,.26V23l.09.26.13.26.2.77.05.46,1.65-.64,2.26-1.45.27-.1.24,0,.19,0,.16.09.45.41.6.1h.91l.59.09.15.11.1.13v.36l-.48.38-.14.29-.21.58,0,.33.15.22.47.19.15.26,0,.43-.15.67v.88l-.18.4-.16.24-.11.23.13.14.22.11.82.23.8,0,.19.06.31-.12.49-1.08.5-.24.22.09.13.16v.22l0,.21.18.22.51.17.21.23.06.21-.06.31-.09.23-.11.12-.06.05h-.25l-.5.09-.33,0v.33l.14.2.24.28.35.24.78.27.13.24,0,.2-.05.2-.09.16-.14.11-.36.11h-.22l-.34.32-.2.16-.23.05h-.57l-.44.11h-.26l-.26,0-.26-.07-.53-.08-.25-.08-.21-.11L166,32.8l-.13-.48-.17-.19-.23-.13-.27-.08-.33-.06-1,.11-.24.21-.18.24-.12.26-.31.45-.38.42-.14.26-.1.25,0,.25.11.21.38.36.82,1.07.19.15.19.08.15-.08.05-.19,0-.2.1-.22.13-.23.19-.19.22-.12.25-.06.51,0,.2-.13.2-.2.38-.56.24-.06.19.13.1.27-.06.42-.18.37-.29.48-.3.39-.17.34-.1.29,0,.27.11.24.17.21.19.17.15.26-.09.33-.11.28h.34l.12,0,.69-.21.82-.4.86.46.76.72.51.37.42.2.68.86.68.31,1.76,1.48.29.35.12.43v.35l0,.48.16.28.37-.24.1.33-.06.19-.32.36V45l.16.22.22.13.19-.06.34-.17.36,0,.18-.58.1-.27.21-.21.39-.15.36.11.93.66.28.3.09.28v.26l-.06.25v.53l.08.57.21,0,.25.14,1,.75.38.18.18-.22.14-.11.3,0,.27.2,0,.56.33-.33.37-.19.43-.06.53.07-.06-.1,0,0,0,0-.06-.08.13-.29.16-.22.2-.15.24-.09.27.64.8.47.94.29.57.08.09-.55.24-1.93-.11-.69-.07-.25-.14-.2-.2-.08-.22,0-.55.72-.22.11-.21-.08-.41-.24-.22,0-.18-.15-.14-.2,0-.24,0-.27.37-.35.23-.14.52-.44.35-.39.53-.44.25-.1h.25l.23,0,.15.09.12.12.23.4.18.14h.48l.26,0L188,43l.81-.54.15-.19V42l-.07-.22-.29-.08-.14-.1-.23-1.4v-.29l.22-.32.73-.25.15-.23.07-.32v-.6l.06-.55.3-.83.57-.94.07-.38,0-.33-.37-1.53.42-.84,0-.21.11-.24.17-.23.3-.3.36-.07.49.21.24.07.53-.07H193l.29,0,.27-.1.25-.24.51-.71.26-.15.75-.15.21-.16.18-.23.08-.36v-.29l-.06-.27,0-.3.11-.33.21-.46.38-.66,1.36-1,.36-.18.35-.28.3-.32.38-.77,0-.41,0-.35-.1-.24,0-.26,0-.57,0-.28.21-.79.07-.18.16.1.35.15H200l.1-.08v-.2l.05-.19.15-.11.23.08.18.1.27,0,.37-.22.34-.34.42-.68.38-.75.25-.26.23-.19.63-.19h0ZM183,42.79l-.29.17-.33,0-.13-.11-.06-.14-.14-.06-.18-.06-2.08-.05L178.45,42l-1.83-.42L175,40.82l-.72-.54-.66-.68-.13-.31.05-.25.39-.45.56-.86.16-.17.28-.08,1.72-.11.72.07.3.08.39.19,1.66.5.34,0,.26,0,.23-.09.18,0,.14.09.1.16.15.16.24.16.23.05h.28l.08.11,0,.3-.07.16,0,.17-.25.51-.1.14-.14.1-.34.1-.14.1-.06.15v.17l.1.15.13.15.14.14.13.16.26.4.16.1.18,0,.17-.07.17-.1.25-.29.15-.1.18,0,.09.11.08.2,0,.24.1.32,0,.45Z"/><path id="Baeleric_Islands" data-name="Baeleric Islands" class="cls-6" d="M293.86,169.86l.14-.31-.22-.24-.22-.16-.3-.07-.48,0-.18-.06-.44-.36-.39,0-.38.16-.25.33-.56-.1-.75.21-.74.39-.54.45-.31-.2-.53.41-.25-.22h-.17l-.65.71-.4.34-.35.14-.31.35v.81l.23,1.46h-.65l-.26.07-.2.18-.32-.19-.31,0-.27.17-.22.21.24.42-.09.51-.33.84.12.63.31.36.85.58.18-.43.45-.15.45.14.2.43.27-.07,0,0,.09,0h.18l.4-.15.47.36.26.7.87,0,0-.85.29-1.17.37-.21.44-.57.09.15.18.16.1.13.29-.35.75-.4.34-.29.85-1.3.94-.63.14-.21.09-.54.23-.44.36-.28.45,0-.43-1.15Zm36.08-3.11-.72.69.46,1.17.84.07.54-.8.08-.94-.13-.67Zm-38.08,17.11-1.08-.58-1.31-1.89,0-.08v-.08l0,0-.11,0-.09.54-.26.4-.27.12-.19-.2-.33.39-.16.26.1.13.2.12v.27l-.12.32-.14.23v.36l.11.26-.12.7.38.12.43-.27.44-.64.26-.18.52-.38.44.23,1.33.87.92,0,.64-.15,0-.75-.45-.57Zm51.53-37.34-1.52-.91-.77-.23-.38.19-.82.84-.47.19h-1.85l-.78-.18-.87-.49-.7-.69-.31-.78,0-.73.2-.27.85-.22.44-.19.15-.1.16-.18.09-.27,0-.26,0-.23.27-.2v-.22l-2.06.58-1-.17.06-1.13h.2l.3.17.32-.28.36-.4.4-.21.35-.08.95-.45.29-.21-.35-.19-.08,0-.14.15-.37-.48-2.79,1.15-1.49.38-1.51.15-.83.23-1.62,1.09-.79.38-.25.05-.56-.05-.1.07-.17.31-.1.07-.4.1-.31.25-.31.32-.39.31-.79.4-.2.06-.18.15L323,145l-.12.08-.08.17-.65.66-.12,0-.31-.06-.12,0-.06.11-.19.43-.11.17-.85.92-.46.38-.46.15-.54.08-.4.22-1.33,1.43-.48.32-.57.13-1.93,1.22-.16.53,0,.71.13.62.49.4.23.63.26.19.17,0,.74-.43.14.34.19.09.21-.13.22-.3.72.74-.23.14-.09.22.07.28.06.07.51.89.74-.09.67-.7.29-.94.36-.4,1.73-1,.59-.19.71.21.9.53.77.7.31.72-.41.85-.08.57.39.26.28,1.9.67.85,1,.43,2.35.17.26,0,.42-.16.32,0,.24.08.42.34.26.08.19.13.09.32.06.38.12.32.16.14.42.19.17.12.74,1.1.11.14.25-.09.24-.18.11-.11.21-.35,1-.89,2.47-1.54.85-.92.44-1.44.11.1.26.16.25-1.94.85-1.68,1.14-1.37,1.09-1-.2-.55.09-.54.3-.41.45-.17.36-.21.29-.49.37-1-.16-.44.08-.22.17-.14.1-.18,0-.28-.09-.26,0-.29.16-.36Zm23.94-4.61-.58-1-.12-.53-.13-.58-.33-.09-.42,0-.42-.21.48-.2,0-.51-.23-.58-.28-.39-.19-.1-.4-.08-.15-.08-.28-.27-.12-.16-.16-.27-.76-.49-.16-.25.11-.47-.16-.19-.18.14.05.52-.27.4-.2.24-.17.11-.18-.12,0-.26.06-.26.06-.1-.6-.48-.24-.28-.07-.42-.29.17-.45.37-.38.17-.31,0-1.08,0-2.6.27-.64-.27-1.88.42-.33.43-.07.43-.1.18v.18l.26.42.24.21.55.2.22.19-.31.29-.09.46,0,.51-.11.42,1,.37,1.94-.39,1.08,0,.91.36,4.37,2.89,1.91.94,1.4-.19.08-2.31.24.12.21.17.17.2.11.22h.18Z"/><path id="Asturias" class="cls-1" d="M128.73,17.42l-.11-.15-.06-.22.08-.23.34-.59.23-.51,0-.45V15l-6-.53-.54-.17-2.2-1-1.91-.4-.61-.33-.29-.08-.31.06-.39.34-.22.08-1.88-.58-.32.21-.29-.47-.64-.18-2.32-.11-.92-.33-1.94-1.3L108,10l-1.13-.11-.4.08-.15.19-.08.25-.2.24-.28.14-.57.2-.28.17-.18-.25.48-.46.35-.59-.08-.52-.82-.22-5.42.23-1.4-.23-.32-.65-.2-.16-.14.53H97l-.5-.78L95,6.33l-.58-.5-.87-.44-.43,0L93,5.71l-.12.45-.31.17h-.87l.06.11.07.27.05.12-.34.39.11.3.18.28-.14.34H88.53l-.42.2-.4.32-.4.18-.43-.21-.42.23-2.09-.23L84,8.5l-.86-.64-.37.06-.2.19-.16.2-.64.16-.7.33-.39.07H79.3l-1.39.28-.39-.09-.63-.37-.37-.08,0,.17.07.42,0,.18H76l-.31.08-.28.21-1-.53-1.38-.5-1.37-.14-1.48.8-.7-.08L68.4,8.87,66.79,9l-.41-.13L63.74,9l-1.55.35-.24.87-.36.27-.16.51-.08.62-.15.6H61L61,12l-.05.22,0,.06L60,13l-.37.59-.27.26-.21.14-.19,0h-.2l-.27-.1h-.3l-.33.09-.16.21-.05.24-.08.77,0,.2.08.17.36.18.46,0,.18.13.11.22,0,.28v.3l0,.33.09.42.17.38.19.28.36.38.23.06.22.15.19.2.23,1.59.16.38.16.27.2.21.59.48.21.05H62l.3.4.43.22.22.06.17.13v.2l0,.24-.18.53,0,.36.08.28.14.26.17.21.21.16.22.07.45-.2.5-.31.26-.1.2-.15.13-.19.05-.23.12-.22.17-.15.2,0,.24.22.26.37.42.71.07.41-.05.32-1,.92-.22.13-1,.41-.25,0-.27,0-.18.05-.16.11-.1.17-.09.22-.08.25-.08.36-.14.27-.21.15-.22.07-.18.24-.06.4.14.42.2.36.26.15.12-.05.12-.08,0-.07,0-.06,0-.12V29l.06,0,.17,0,.56.82.07.08.22.2.21.1.26,0,.51,0,.23.1.63.64.24.32.09.38L66.85,33l.89.14.49.25.17.37.2,0,.3-.17.22-.21.18-.24L69.5,33l.28-.18.49-.16.5-.09H72l.34.07.22.08.17.14L74,33l.29,0,1-.4.38,0,1.42-.79.11-.24,0-.23L77,31.09l-.48-.18-.22-.14-.13-.2,0-.21.13-.15.77,0,.56-.18.2-.11.11-.16v-.2l0-.23.13-.21.18-.24.08-.24.16-.26.75-.34.47.12.25.17.22.21.52.16h.35l1.18.59.52.13.22,0,.12-.17.07-.5.17-.19.35-.08.65.12.74.3.34.09.36,0,.53-.25.18-.26.08-.28,0-.26.08-.21L87,27.5l1.32.27.36,0,.78-.18.31.17.14.23.1.53.08.26.11.25.15.21.64.41.33.28.37.23.3.1.13.16.7.28.22.14.27.1,1.08,0,.42-.07.29-.08.24-.26.1-.22.11-.2.06-.2,0-.1,0-.1.08-.22.13-.22.18-.21.14-.23.09-.23.14-.23.28-.17.39-.14.68,0,.4.05.76.38.58.13h.39l.59.13.22.17.24.13.27.07.29,0,.64-.27.5,0,.21,0,.13-.18.12-.23.07-.23.14-.18,1.47,0,.29-.06.26-.11.23-.27.19-.79.24-.16.35-.07,1.44.22,2.57-.31,1.41-.71.25,0,.28.17.27.09.32-.05.41-.4.2-.32.2-.58.05-.27.1-.24.28-.53.25-.23.46-.24,1-.28.84-.47.42-.39,1.43-.78.27,0,.26,0,.26.09.53.43.74,1.28.33,0,.8-.13.26-.09.25,0,.51.11H123l.22-.18.18-.4.07-.32,0-.3,0-.25.06-.25-.07-.51.06-.25.16-.22.32-.18.28-.09.28,0,.25.05h.26l.56-.05.25-.13.13-.1.12-.21.18-.21.41-.26.26,0,.29,0,.49.12.18.14.15.42.16.12.22-.05.2-.17.17-.23L129,19l0-.36-.08-.52Z"/><path id="Aragon" class="cls-6" d="M271.45,44.39l-.09-.16-.29-.17-.56-.1-.23-.11-.25-.2-.21-.31-.37-1-.51-1-.33-.28-.18.3-.35.13-1-.13-3.36.1-.45-.19-1,.27-.52,0-.54-.11-.13-.13,0-.15V41l-.06-.12-.74-.64-.49.18-.48.48L258.56,42l-.4.06-.42-.5-.58-1-.43-.21L255.3,40l-.44.07-.51.34-1.65.25-2.08.77-.93.09-1.06-.42-.16-.16-.12-.19-.19-.17-.34-.1-.28-.13-.07-.24,0-.26-.16-.2-.44-.37-.32-.54-.16-.63.06-.64-.48.21-.78.22-.72-.09-.32-.68-1.57-1-.06,0-.41-.39-.15.36-.19.28-.21.08-.23-.24-1.29,1-.65.39-.82.06L237.05,37l-.68,0,0,.87-.24.08-.45.31-.21,0-.26-.17v-.22l0-.24-.16-.22-.12,0h-.44l-.18-.08v-.14l.05-.16,0-.16-1-1.41-.48-.4-.92-.58-.27,0-.26,0-.26,0-.27-.27-.15-.33,0-.2.09-.17v-.26l-.11-.29H230l-.94.51-.18.3-.09.27,0,.25-.1.22-.73,1-.11.33-.06.3,0,.58-.16,1.09-.27.62-.28.23-.34.18-.17.14-.21.46-.55.26-.72.69-.34.24-.34.17-1.28.35-.19.22-.07.26,0,.25,0,.26-.14.49-.11.22-.3.17h-.54l-.26-.06-1.61.21-.18.2-.07.24v.21l0,.18-.27.13-.18.06.09.09.42.21,0,.13-.15.21-.66.42-.29.34-.2.32-.06.31-.18.15-.21.12-.23,0-.49-.15h-.31l-.2.17-.18.25-.18.35-.11.29-.06.28,0,.24.07.2.12.23.06.14,0,.26-.18.39-.4.63-.71.69-.57,1-.16.64-.06.39,0,.28.1.23.18.12.15.2.06.22-.09.3-.8,1-.54.83-.18.48-.11.37,0,.27-.13.58-.11.35-.21.51-.1.35,0,.31,0,.26.12.27.15.22.13.23.1.26,0,.31V61l0,.29v.51l0,.25.14.22.37.37.13.22.11.24.07.25.14.24.16.22.22.13.24.06h.25l.2.16.11.31-.1.62-.17.34-.55.75-.49.84-.36.84-.17.27-.07.34-.29.4-.25.26-.15.35-.15.18-.12.07-.19-.08-.49-.12-.26,0-.77-.27-.2,0-.19,0-.14.06-.41.24-.51.09h-.26l-.25,0-.48-.19-.42-.31-.19-.18-.29-.43-.19-.19-.21-.15-.47-.23-.48-.17-.25.07-.5.23-.26,0-.26-.06-.52-.2-.23-.15-.2-.17-.34-.44-.2-.2-.22-.13-.24-.09-1-.08-.24,0-.29-.15,0,0-.06,0-.07,0-.3,0,.21.69-.1.14-.26.85.17,1.76.4,1.16.56.81v.27l-.05.3-.1.3-.12.26-.16.23-.29.53L201,74l.09.27.19.22.45.69.22.46.06.27.16.21.18.11.28.34-.07.49-.12.32-.18.35-.21.6-.23.32-.24.13h-.25l-.27,0-.27.15-.3.34-.25.22-.52.27-.46.55-.16.24-.18.16-.23.07-.5-.17-.22-.11h-.16l-.13,0-.15.09-.15.12-.2.23-.07.25v.25l.06.24.16.16.16,1-.07,1.26.09.59.17.41.19.22.15.25.09.32.19,1.52-.16.14-.23.1-.27.05-.26.08-.44.25-.49.36-.22.1h-.23l-.18-.12-.09-.21V88l0-.3v-.27l0-.26-.11-.21-.19-.15-.47-.16-.81-.12-.3.17-.14.23-.09.28,0,.28v.28l0,.32-.15.81-.16.28-.17.23-.19.14-.18.07-.16.14-.17.26-.15.65,0,1.19.21.49.11.19.06.23.21,1.36.06,1.34.11.26.18.18.23.08.49.08h.26l.25.08.23.11.59.47.23.3,2.19-.7.73.2.17.26.26.25.34.25.68.28,1.1.86.9.51,1.34,1.14.17.23.13.22.09.24.15.24.39.46,1.44,1.26.17.22.28.29.17.22.93.83.32.68,0,.3-.06,1.16.14.53.21.47.2.28.37.44.7.48.25.28.09.27,0,.32,0,.85-.08.34-.25.53-.11.3,0,.3v.36l.11.31.16.31.2.47.07.36v.75l-.08.28-.22.48-.15.57,0,.41.11.68-.12.21-.16.22-.22.17-.45.27-.24,0-.23,0-.22-.12-.21-.17-.45-.19h-.25l-.68-.17-.18.14-.13.22-.43,1.3,0,.48v1.26l-.16.28-.22.18-.51.26-.24.2-.23.29-.87,1.35-.19.18-.17,0-.33.45.78.35.46.49,1.12,1.52.14.49,0,.4-.12.28,0,.44.15.07.12-.12.24-.13.4.05.68.36,2.83,2.74.36.26.22.1.37-.21h.28l.38.1.38.15.3,0,.68-.13.13.15,0,.22v.25l0,.25-.13.44-.15.33,1.43.34.84,0,.55-.12.51-.22.14-.25,0-.26-.1-.54.06-.3.16-.28.36-.28.17.06.09.17.17.48.23.49.14.23.18.22.18.18.21.13.12.11,0,.16v.18l.09.21.2.21.53.25,1.72.21.68.43.88.74.35.4.09.24,0,.24-.09.25-.14.21-.2.16-1.28.65-.64.17.46,1.38.43.29.63-.18.24,0,.5-.19.66-.15,1,.05.48-.07.3.05.45.13,1.33.63.38.46.11.29,0,.27-.09.24-.06.25v.23l.1.21.11.2,0,.23v.54l0,.26.15.2.23.16.27.1.49,0,.35-.08,1.5-.78-.17-.35-.32-.36-.21-.13-.18-.18-.23-.46-.1-.49v-.23l-.07-.21v-.24l.08-.53.12-.25.18-.23.62-.33.29-.07.35-.23.07-.06.24-.28.11-.32.12-.57.1-.18.19-.06.21,0h.45l1-.16,1.87-1,0-.21-.13-.48,0-.27.05-.28.11-.24.45-.46.37-.27.22-.36.13-.29.06-.55.12-.26.19-.31.11-.53,0-.25,0-.24v-.5l.05-.23.15-.18h.26l.24.1.24.15.41.11h.15l.21,0,.22-.08.25,0,.5,0,.25-.07,1-.47.21-.2.18-.25,0-.36,0-.28-.06-.25.05-.23.58-.45.33-.33.43-.69.26-.29,1.07-.7.15-.22,0-.35-.1-.27-.16-.25-.33-.41-.18-.18-.41-.31-.16-.21-.09-.27,0-.26.16-.26.27-.25,1.25-.53.14-.14v-.2l-.09-.22-.13-.44,0,0-.4-.25,0-.2v-.24l.08-.24,0-.25v-.51l0-.25-.06-.24-.06-.5,0-.27.07-.29v-.48l-.16-.12h-.21l-.46.16-.24,0-.24-.07-.2-.13-.24,0-.23-.09-.2-.13-.08-.21,0-.5V115l-.06-.25,0-.27.23-.26.29-.16.32-.07.44.08.44.31h.23l.31-.16.22-.19,1.37-.76.13-.22v-.51l0-.54.12-.52.12-.24L245,111l.51-.63.29-.12.49,0,.37.18.26.2.19.21.41.36,1.23.8.71.13,1.34-.09.45.12.18.21.09.27v.24l0,.22.18.1.24,0,.3-.2.22-.21.24-.18.23-.13.31-.11.38-.07,1,0,.76-.3-.15-.44.14-.14,1.47-.87.18-.2.23-.47.52-.61.14-.23.11-.25,0-.28-.28-.64-.1-.3v-.36l0-.28-.17-.53.06-.36.07-.29.1-.28.06-.26.1-.24.31-.48.11-.34.15-.26.11-.83-.42-1.3-.44-.34-.39-.17-.42-.35-.3-1-.11-.48-.12-.19-.07-.27V98.7l0-.27.06-.28.13-.22.29-.16H257l.23-.06.16-.15.1-.19.17-.18.48-.13.24-.11.22-.18.18-.24.18-.67v-.3l.05-.26.12-.27.21-.25.41-.27.31-.15.27-.17.07-.08-.16-.84-.05-.82.67-1.51-.09-.63-.24-.49-.36-.36-.45-.23-.21,0-.08-.72.38-.57.28-1,0-.69,0-.7.07-.2.27-.25.79-.25.19-.09.08-.08,0-.09V84.5l.05-.14.1-.21.14-.22.53-.63.14-.22.08-.23-.1-.31-.11-.28-.07-.27,0-.28v-.28l-.15-.3-.22-.09-.26,0-.29,0-.81-.1-.23-.12-.14-.2-.09-.29-.13-.79-.37-.89,0-.28V78.1l.38-.58.64-.6.36-.6.18-.22.2-.15.06-.2.16-.26.1-.13.18-.11.2-.06L263,75l.28-.18.23-.31.28-.58.35-.61.12-.13.15-.13.22-.08.51-.13.23-.18.2-.26.23-.4.39-.26.22-.11.17-.23.18-.2.11-.25-.06-1.19-.05-.23-.1-.18-.24-.16-.36-.35,0-.22.11-.22.16-.23.21-.2.24-.15.23,0,.17-.1.13-.14.19-.39.14-.19.18-.16.3-.11.12-.14.13-.2.12-.4,0-.28v-.24l.37-.8.43-1.48V63l.26-.19.14-.33.11-.4.08-.78.07-.38-.08-.37-.07-.21.05-.38.07-.35.09-.26.21-1.14.06-.17.11-.15.2-.35.23-.68,0-.24.06-.65v-.47l0-.16.15-.48,0-.34v-.7l-.13-1.55-.22-.88-.15-.45-.16-.24-.12-.12-.1-.08-.1-.15-.1-.28,0-.39-.06-.28-.13-.29-.06-.27.08-.31.18-.13h.2l.11,0,.1,0,.1-.08v-.09l.07-.21-.07-.4.1-.31.09-.21.13-.14.13-.33.15-.3.13-.21.07-.15,0-.17,0-.22,0-.52,0-.2.1-.23Zm-51.9,6.56-.2.51-.29.3-.38,0-.18-.33.07-.45.22-.24.36-.18.24-.18.16.15Zm2.45-.39-.22.15-.31,0-.58-.12-.4-.12-.29-.24,0-.36.13-.36.11-.24.31-.33.18,0,.2,0,.09.27,0,.42.24.15.29.3.2.18Z"/><path id="Andalusia" class="cls-3" d="M204.09,226.25l-.24-.1-1.38-.32-.13,0-.12.12,0,.17-.06.13-.15,0-.21-.09-.2-.13-.32-.32-4-6.26-.24-.3-.11-.2-.1-.35,0-.57,0-.26v-.55l0-.25.12-.35.1-.45,0-.23-.1-.35-.08-1.21,0-.21.2-.52,0-.21v-.61l0-.25.12-.24.3-.41v-.2l-.19-.17-2.54-.35-1-.49-.35-.12-1.25.08-1-.66-.61-.37-.79-.93-.55-.85-.35-.69,0,0v0l-.22-.2-.92-.69-.33.1-.28,0-2.82-.86-2.2-1.07.3-.43.38-.41.16-.23.25-.46,1.66-2.15.05-.28,0-.3-.12-.41v-.18l.09-.11.12-.11.1-.16.07-.2.05-.21,0-.26,0-.22V198l-.05-.25-.2-.34-.84-.53-.17-.34,0-.32,0-.31,0-.54-.07-.52-.1-.23-.05-.25,0-.27,0-.49,0-.19-1.84-.54-.27-.29-.11-.17-.07-.24,0-.23.07-.24,0-.49-.06-.24-.06-.48.09-.41V190l-.05-.05-.23-.11-.45-.16-.74,0-.44.05-.36.1-.51.21-1.17-.48-1-.65-.31.31-.07.13-.56.46-.43.23v0l-.1.08-.14.06-.76.43-.16.12-.24.22-.05.09,0,.06,0,0-.15.07-.07.06-.06.07-.09,0-.13,0-.3-.18-.21-.17-.28-.09-.28-.06h-.4l-.34.05-.42.2-.55.39-.16.18-.07.46-.05.19-.1.1-.23-.15-.37-.41-.62-.91-.18-.21-.21-.12h-.24l-.77.49-.4.38-.26.13-.38,0-.9-.28-1.87-.1-.52-.1-.49-.17-.48-.24-.32-.11-.41,0-.62.09-.43.23-.21.24-.11.25-.05.24,0,.24-.13.21-.39.42-.62.39-.7.29-.33.06h-.33l-.44-.07L156,193l-.2-.13-.11-.21-.07-.24,0-.24-.1-.21-.15-.18-.26,0-.34,0-.28.19-.1.26-.12.76-.1.21-.2.13-.3.08h-.34l-1.4-.35-.54-.07-.68-.3-.22,0-.19.09-.22.07-.45-.16-.25-.13-.3,0-.43,0-.36.1-.42.27-.18.26-.27.52-.55.23-.91.15-7.65-.31-1-.37-.53-.07-.56,0-.24,0-.18.23-.08.23,0,1.27-.39.07-.32,0-1.74-.72-.36,0-.7-.24-1.19-.56-.28-.17-.25-.3-.52-.77-.76-.81-.7-.6-.41-.2-.33-.27-.37-.11h-.25l-.25-.09-.21-.15-.22-.31-.14-.29-.24-.32-.95-.74-.46-.18-.5-.31-.08-.21-.21-.25-.35-.25-1.1-.5-.34-.1h-.53l-.34-.07-.39-.15-.56-.37-.32-.38-.13-.32,0-.54v-.26l-.06-.53-.1-.24-.26-.16h-.8l-.31.05h-.58l-.9-.37-1.54-1.18-.73.1-.43.21-2.14.05-.3.14-.07.19.1.24.05.27-.1.36-.09.22-.05.19-.12.17-.79.24-1.23.85-.87.75-.14.19-.11.13-.08.13-.07.16v.15l-.09.17-.12,0-.15,0-.33-.07h-.55l-.35.07-.47.43-.15.18-.24.38-.17.21-.1.19-.07.19,0,.21-.1.24-.22.31L104,190h0l-.4.38-.15.21-.28.48-.2.16-.45.15-1.2.66-.35.29-.2.25-.17.72,0,.18,0,.17.08.16.24.27.08.15,0,.17v.18l-.07.37-.05.18-.06.35v.16l.08.15.12.13.14.13.12.13.09.16.06.16.11.4.06.16.09.17.07.18.26.48,0,.14,0,.25,0,.25.06.25,0,.25,0,.26v.25l-.07.48-.19.24-.08.24-.09.49v.44l-.13.18-1.15.93-1.14-.06-.52.35-.18.22-.59.56-.6.44-.47.09-.3-.05-.17-.18-.15-.72,0-.24v-.21l.15-.16.2-.13.24-.1.43-.25.12-.18-.05-.2-.12-.21-.43-.48-.37-.29-.35-.07-1.8.24-.8.3-.25.2-.18.23-.23.43-.14.16-.2.16-.7.43-.24.22-.16.24-.12.25-.08.24V204l.11.21.13.21.08.23v.24l-.07.24-.46.6-.09.19,0,.17-.06.2-.1.26-.3.35-.29.18-.35.14-1.16.24-.52,0-2,.41-.67.35-.84.64-.36.37-.46-.44-3.52-1.46-.68-.18v0l-.07-.19-.05-.23-.1-.27-.2-.34-1.1-.77-.29-.11h-.28l-.22.06-.19.13-.1.2-.14.2-.4.35-.14.16-.06.19-.1.1-.39.05-.67-.22-1.29-.09-.17-.16-.07-.22,0-.26-.06-.25-.08-.23-.51-.71-.38-.32-.35-.14-.38-.1-.88-.08-.65.1-1.27,0-.74-.23-.33-.19-.36-.09-.23-.15-.08-.2,0-.24.19-.46.11-.22.14-.2.08-.24v-.24l-.14-.26L64,200l-.45.37h0l.08.06-.27,1-.21.51L62.79,203l-.5,1-.24,1-.25.43-.22.83-.68.08-1.52-.63-.47,0-.24.26-.27.71-.28.37-.2.13-.35.1-.33.18-.33,0-.34-.11-.35,0-.29.2-.86.18-.19.2v.27l.08.32v.35l-.14.6-.59,1.59-.3,1.16-.74,1.32-2.48,2.09-.48.7-.37,1L49.67,219l-.14.51-.19.27-.71.76-.26.17.07.21,0,.17-.06.15,0,.17-.29.33-.09.14v.35l0,0h.11l.14.47,0,.23.06.2,0,0,.22.35.21.22.46.38.15.21.19.63.16.83.08.75-.06.38.47,1.05.2,2.69.27,1.11-.18.51.13.76.4,1.49.43.25L52,235l.5-.06.53-.49.41-.18,6.53-.17-.36-.18-.76-.1.71-.32,1.06.35.87.29,2.36,1.16.35,0,0-.37-.29-.59-.59-.91v-.21h.85l.74-.53,1.37-1.54-.31.6L65,233.11l-.32.28-.19.42.18.88.48.76.53.27.55.26,1.11.93.46.2.63.17.72.38,6.61,4.78.77.81.6,1.06.87,2.24.76,1h1l.16-.38-.16-2,.21-.71.51-.38,1.14-.45.5.44.68,0,.69-.28.52-.35-.77,1L81,244.2,80,245l-.15.8.23,1.4-.28.78-.36.31-1,.36-.49.25-.51.55-.12.6.17.63.38.63.29.65.33,1.34.4.43.49.12,1.83.12.29.15,1.3,1.23.24.64-.17,1,.22.51.47.07.55-.18.19,0-.58.66-.29.45-.2.19-.33.08-.41-.47-.2-.32.14-.28-.23-.3-.86-.79-.22,0-.33.15L81,257l.59.49.61,1.17.4,1,.64,1.47.92,1.06.24.57.18.61.07.55.18.48,1.47.79.61,1,.53,1.12.69.93,1.43.42,1.2-.23h.59l.52.34,1.75,1.72.58.85.41.38,1.14.33.53.33.56.19.64-.24.48.37,1.13.64.48,1,.83-.25.39-.26,2.7-1,.57-.22.18-.18.18-.23.08-.37-.08-.27-.15-.33-.07-.52.14-.24-.18-.43,0-.48.12-.42.25-.28.09-.33.52,0,.63.23.43.3.22.74H107l.13-1.56.13-.35.88-1.64.3-.45-.11-.3,0-.25.44-.17.22-.15.2-.18.13-.15.24-.5.45-1.22,0-.31.74-1.31.35-.47.35-.21.43-.15,1-.12.33-.12,1.25-.78,1.84-.16,1.9-1.33.31-.24.26-.09.6,0,3.13.39,1.12,0,1.14-.26.57-.23.25-.15.94-.62.73-1.45,1.7-.23.79-1.34.11-.54.29-.49.37-.4.15-.28.75-1.32.35-.31.46-.13,4.81.39.75-.1,2.34-.35.81-.6.63-.15,2.58.71,1.93-.56,1.37-.29.95.32,1.94.62,1.39-.16.38-.35.9-.06.84,0,.4.54,1,.48.37-.2.54-.09,1,.84,1.68,0,1-.62.55-.4.38-.37.4-.27,2.74-.33,1.92.35,2.16-.18,2.39.43,1.47-.49.52,0,.75.54.74,1,.28.16.25-.07.24-.31.24-.07.5.22.53.43.71.48.55-.24.48.18.91-.13.69-.3.3-.31.13-.1.69-.72.55-1.5.53-1.29.43-.25,2.14-.37.32.07.73.32.25.07.55-.13.87-.46.5-.1.61.09.56.21,1,.6.72.76.66.92.76.77,1,.32.52-.08.54-.22.42-.33.28-.64.25-.1.3-.08.25-.16.14-.28.14-.63.1-.26.44-.48.42-.32.32-.4.28-1.39.37-.45.95-.65.34-.34.16-.08.6,0,.21-.08.13-.18,0-.3,0-.29-.1-.26-.08-.3,0-.42.57-.94.8-2.06.15-.94.33-.92.2-1.17.47-1.38.69-1,1.58-1.6.8-1.15.35-.7.15-.59.25-.3.49.07.19-.27.12-.4Z"/></g></g></g></svg>