<svg xmlns="http://www.w3.org/2000/svg" viewBox="-19984.188 14726.998 23.793 16">
  <defs>
    <style>
      .cls-1 {
        fill: #fff;
      }
    </style>
  </defs>
  <path id="XMLID_27_" class="cls-1" d="M22.979,3.4c.014-.214.129-.426.027-.649a1.821,1.821,0,0,1-.127-1.026A.905.905,0,0,0,22.427.8,4.1,4.1,0,0,0,20.074,0a9.458,9.458,0,0,0-5.848,2.084.66.66,0,0,0-.269.334c-.073.121.161.229.072.356l-.68.753c-.3,0-.6.011-.9,0-1.822-.078-3.644-.169-5.467-.237A3.692,3.692,0,0,0,5.2,3.469a10.23,10.23,0,0,0-2.1,1.2,2.461,2.461,0,0,0-.935,3.146c.18.491.365.981.528,1.478a2.084,2.084,0,0,1-.253,1.694,1.979,1.979,0,0,1-1.144.887.574.574,0,0,1-.811-.323c.038-.3.292-.432.5-.593a1.317,1.317,0,0,0,.608-1.08c-.017-.526-.29-1-.345-1.6a4.16,4.16,0,0,0-1.13,2.024A1.979,1.979,0,0,1,0,10.958v.667a1.067,1.067,0,0,0,1.365.706,1.24,1.24,0,0,1,.087.619,20.443,20.443,0,0,0,.16,2.277A.994.994,0,0,0,1.951,16H3.72c.846-.931.724-1.363-.46-1.7a.606.606,0,0,1-.106-.448,5.012,5.012,0,0,1,.169-1.126.816.816,0,0,1,.408-.553A9.8,9.8,0,0,0,5.3,11.021,11.484,11.484,0,0,0,6.333,9.848a3.453,3.453,0,0,1,.6,2.136,2.4,2.4,0,0,0,.411,1.623,6.712,6.712,0,0,1,.852,1.8A1,1,0,0,0,8.545,16h1.549c.3-.33.62-.672.483-1.166-.128-.458-.587-.411-.924-.5a2.624,2.624,0,0,1-.614-2.706,8.2,8.2,0,0,1,.587-1.5l2.229.737a3.388,3.388,0,0,1,.141.869c.1,1.153.189,2.307.306,3.459a1.086,1.086,0,0,0,.276.806h1.91c.836-.889.729-1.311-.461-1.724-.117-1.1.454-2.056.667-3.105a8.135,8.135,0,0,1,1.338-.077,3.172,3.172,0,0,0,.4.892,15.66,15.66,0,0,1,2.373,3.433,1.137,1.137,0,0,0,.517.576h1.661c.666-.918.557-1.272-.509-1.724a1.752,1.752,0,0,1-.192-.527c-.278-1.041-.524-2.093-.839-3.123a1.5,1.5,0,0,1,.5-1.784c.1-.083.2.093.385-.038a8.923,8.923,0,0,0,1.355-2.111,1.263,1.263,0,0,1,.253.027.838.838,0,0,0,1.022-.37c.322-.416.533-.888.834-1.353A10.384,10.384,0,0,0,22.979,3.4Z" transform="translate(-19984.187 14726.998)"/>
</svg>
